<svg xmlns="http://www.w3.org/2000/svg" viewBox="0 0 91.34 150.8" style="opacity: .6;">
    <path d="M91.34,11.53a1.31,1.31,0,0,0-.08.27A10.05,10.05,0,0,1,90,15.87a9.21,9.21,0,0,1-5.17,4.18,14.92,14.92,0,0,1-6.37.73l-.34,0-.14,0L76,26.93l-1.61-.37c.09-.64.17-1.23.26-1.83q.46-3.05.93-6.1c.08-.53.2-.62.73-.52a16.87,16.87,0,0,0,4.52.32,9.52,9.52,0,0,0,3.5-.9,7.4,7.4,0,0,0,4.09-5.46,7.8,7.8,0,0,0-4.68-8.68,11.34,11.34,0,0,0-9.47.15,17.1,17.1,0,0,0-3,1.8l-.43.31L69.4,3.73l.2-.18A19.4,19.4,0,0,1,73.92,1,13.25,13.25,0,0,1,81.71.27a14,14,0,0,1,4.15,1.4,10.18,10.18,0,0,1,5.32,6.9c.07.31.11.62.16.93Z"/>
    <path d="M11.68,98.93c0-.13.07-.22.11-.31a33,33,0,0,1,6.15-9.13,27.81,27.81,0,0,1,13-7.56,28.24,28.24,0,0,1,7.23-1,20.49,20.49,0,0,1,9.56,2.22,17.91,17.91,0,0,1,9.08,10.58,22.05,22.05,0,0,1,1.25,7.23A15.88,15.88,0,0,1,55.28,110,25.12,25.12,0,0,1,47,117.55c-1.36.79-2.79,1.48-4.26,2.26l1.79,10.4-4.8,1.29c-.06-.13-.13-.24-.17-.35l-5.29-14.27a.75.75,0,0,1,.56-1,36.21,36.21,0,0,0,6.48-2.58,20.15,20.15,0,0,0,5.2-3.8,13,13,0,0,0,3.31-5.64,12.09,12.09,0,0,0-.22-6.89c-1.54-4.9-5-7.71-9.94-8.68a16.11,16.11,0,0,0-8,.72,21,21,0,0,0-10.33,7.35A31.9,31.9,0,0,0,18,101.75l-.26.5Z"/>
    <path d="M40.14,140.85l8.69-2.34,2.68,10-8.64,2.33C42.68,150.49,40.33,141.92,40.14,140.85Z"/>
    <path d="M7.94,35.28l1.25,2.56-.63.38L6.39,35.1l.44-.33a6.25,6.25,0,0,0,1.72-1.64,3.26,3.26,0,0,0,.34-3.4A3.4,3.4,0,0,0,4.7,27.88a4.82,4.82,0,0,0-3.11,2.84c-.25.58-.4,1.21-.61,1.87l-1-.16c.05-.31.09-.59.15-.86A6.07,6.07,0,0,1,4.8,26.74,4.36,4.36,0,0,1,10,32.84a6.18,6.18,0,0,1-1.57,2Z"/>
    <path d="M74.75,36.37l-3.33-.78,1-4.27c1.13.21,2.21.5,3.34.76Z"/>
    <path d="M10.35,42l-1-1.68,1.3-.77,1,1.68Z"/>
</svg>