<?xml version="1.0" encoding="utf-8"?>
<!-- Generator: Adobe Illustrator 15.0.0, SVG Export Plug-In . SVG Version: 6.00 Build 0)  -->
<!DOCTYPE svg PUBLIC "-//W3C//DTD SVG 1.1//EN" "http://www.w3.org/Graphics/SVG/1.1/DTD/svg11.dtd">
<svg version="1.1" id="Layer_1" xmlns="http://www.w3.org/2000/svg" xmlns:xlink="http://www.w3.org/1999/xlink" x="0px" y="0px"
	 width="595.28px" height="841.89px" viewBox="0 0 595.28 841.89" enable-background="new 0 0 595.28 841.89" xml:space="preserve">
<g>
	<g>
		<path fill-rule="evenodd" clip-rule="evenodd" fill="#FFFFFF" d="M447.054,373.215c-31.276-50.249-47.229-108.686-106-123
			c-11.607-2.827-29.635-3.434-46-4c-51.149-1.769-82.05,3.574-133,6c-27.999,1.333-58.104,0.498-78,7
			c-43.121,14.093-46.762,77.104-57,126c-3.946,18.845-8.599,35.908-12,52c-3.369,15.943-9.702,38.051-9,56
			c1.345,34.363,29.912,41.892,63,35c2.946,24.75,16.164,43.102,35,51c40.958,17.176,83.459-14.084,84-55
			c75.432,1.627,162.19-2.413,234,8c4.987,17.922,11.15,32.783,25,40c35.583,18.542,71.726-12.926,77-45
			c46.436,18.953,66.101-28.217,66-68C589.864,384.209,515.084,356.471,447.054,373.215z M573.844,470.716
			c-2.091,26.246-17.653,42.559-48.594,40.565c-0.23,0.077-0.462,0.153-0.692,0.231c-1.921,1.106-3.868,2.133-5.836,3.069
			c-2.397,2.287-4.769,4.601-7.078,6.974c-2.878,3.759-5.782,7.385-8.976,10.644c-4.697,10.771-14.552,18.851-26.752,20.158
			c-0.604,0.221-1.216,0.425-1.839,0.604c-9.982,2.874-17.913-0.919-25.283-7.449c-3-2.659-6.201-5.559-8.97-8.715
			c-6.59-6.79-11.847-15.073-15.167-23.402c-0.606-0.318-1.192-0.677-1.753-1.074c-0.222-0.031-0.443-0.073-0.666-0.114
			c-0.059,0.338-0.131,0.667-0.185,1.008c-65.081-6.97-155.156-12.431-222.345-2.33c-0.848,0.427-1.742,0.783-2.685,1.046
			c-4.492,1.253-9.209,1.6-13.666,2.938c-0.47,0.141-1.348,0.552-1.754,0.739c-0.242,0.139-0.471,0.297-0.706,0.445
			c-0.188,0.268-2.066,1.898-2.2,2.042c-0.807,0.842-1.583,1.711-2.328,2.608c-1.325,1.538-2.962,2.648-4.756,3.373
			c-0.22,0.761-0.439,1.521-0.664,2.282c-2.319,7.856-5.515,16.04-11.546,21.854c-7.463,7.192-17.611,11.621-27.956,12.292
			c-20.11,1.305-34.243-14.008-41.324-31.165c-0.235-0.569-0.447-1.146-0.646-1.727c-1.362-1.1-2.575-2.425-3.549-3.973
			c-0.207-0.328-0.338-0.555-0.436-0.735c-0.12-0.115-0.25-0.241-0.41-0.4c-0.493-0.516-1.02-0.994-1.548-1.473
			c-0.265-0.094-2.996-2.063-3.426-2.294c-0.208-0.111-4.509-1.913-1.737-0.954c-0.9-0.333-1.812-0.628-2.737-0.883
			c-0.513-0.142-1.03-0.265-1.549-0.378c-0.202-0.002-0.55-0.018-1.086-0.052c-1.674-0.053-3.287-0.371-4.803-0.898
			c-0.048,0.214-0.1,0.428-0.144,0.643c-22.05-2.806-38.573-10.124-41-31c-2.026-17.429,4.408-33.873,8-50
			c3.791-17.021,5.813-31.857,9-49c6.754-36.336,13.547-89.236,43-104c27.229-13.648,82.93-10.425,121-15
			c16.586-1.993,36.071,0,54,0c18.369,0,36.887-1.081,53,0c76.746,5.146,84.88,74.174,123,121
			c21.336,0.42,44.471-0.958,64.343,0.926c1.385-0.564,12.553,0.753,13.938,0.192c2.837-1.15,19.884,3.449,22.862,3.717
			c12.471,5.616,21.629,7.932,31.139,29.755c4.343,9.967,8.823,21.712,7.42,32.829C577.022,461.438,575.933,466.178,573.844,470.716
			z"/>
	</g>
</g>
<g>
	<path fill="#FFFFFF" d="M128.438,480.268v-65.735c0-2.407-1.25-3.611-3.745-3.611h-10.832c0.89,2.14,1.337,4.279,1.337,6.419
		v48.886c0,3.925-1.471,7.245-4.413,9.963c-2.942,2.721-6.643,4.079-11.1,4.079v-65.735c0-2.407-1.204-3.611-3.611-3.611h-6.419
		c-2.497,0-3.745,1.204-3.745,3.611v51.693c0,3.925-1.471,7.245-4.413,9.963c-2.942,2.721-6.643,4.079-11.1,4.079V417.34
		c0-4.725,1.692-8.78,5.082-12.169c3.387-3.388,7.489-5.082,12.303-5.082h38.782c4.814,0,8.914,1.694,12.303,5.082
		c3.387,3.389,5.082,7.444,5.082,12.169v48.886c0,3.925-1.471,7.245-4.413,9.963C136.596,478.909,132.896,480.268,128.438,480.268z"
		/>
	<path fill="#FFFFFF" d="M213.892,480.268h-41.991c-4.814,0-8.917-1.716-12.303-5.148c-3.39-3.432-5.082-7.556-5.082-12.37v-48.544
		c0-3.832,1.381-7.155,4.146-9.963c2.763-2.809,6.106-4.213,10.03-4.213h41.992c4.814,0,8.914,1.718,12.303,5.148
		c3.387,3.434,5.082,7.556,5.082,12.37v48.544c0,3.835-1.383,7.155-4.146,9.963C221.157,478.863,217.814,480.268,213.892,480.268z
		 M212.555,414.606c0-2.407-1.25-3.611-3.745-3.611h-38.782v54.696c0,2.406,1.248,3.61,3.745,3.61h38.782V414.606z"/>
	<path fill="#FFFFFF" d="M256.017,480.268c-4.814,0-8.917-1.716-12.303-5.148c-3.39-3.432-5.082-7.556-5.082-12.37v-48.544
		c0-3.832,1.381-7.155,4.146-9.963c2.763-2.809,6.106-4.213,10.03-4.213h29.02c4.814,0,8.937,1.718,12.37,5.148
		c3.431,3.434,5.149,7.556,5.149,12.37v15.513c3.744,0.982,6.819,3.032,9.227,6.151c2.407,3.122,3.611,6.687,3.611,10.699v30.356
		H256.017z M283.832,414.606c0-2.407-1.25-3.611-3.744-3.611h-25.944v17.786c0,2.407,1.248,3.611,3.745,3.611h25.943V414.606z
		 M296.67,446.969c0-2.407-1.25-3.61-3.745-3.61h-36.909c-0.625,0-1.25-0.044-1.873-0.134v22.467c0,2.406,1.248,3.61,3.745,3.61
		h38.782V446.969z"/>
	<path fill="#FFFFFF" d="M325.154,480.268v-66.062c0-3.922,1.247-7.266,3.744-10.03c2.494-2.762,5.705-4.146,9.629-4.146v66.062
		c0,3.925-1.271,7.268-3.812,10.03C332.176,478.887,328.986,480.268,325.154,480.268z"/>
	<path fill="#FFFFFF" d="M368.35,480.268c-4.814,0-8.916-1.716-12.305-5.148c-3.389-3.432-5.08-7.556-5.08-12.37v-48.544
		c0-3.922,1.471-7.266,4.412-10.03c2.941-2.762,6.641-4.146,11.1-4.146v65.662c0,2.406,1.248,3.61,3.744,3.61h43.463
		c3.297,0,5.928,0.982,7.891,2.942c1.959,1.962,2.941,4.637,2.941,8.023H368.35z"/>
</g>
<g>
	<g>
		<path fill="#FFFFFF" d="M196.677,356.644c0,1.109-0.898,2.003-2.006,2.003h-17.707v-9.264c0-1.104,0.894-2.005,1.998-2.005h15.714
			c1.112,0,2.001,0.901,2.001,2.005V356.644z M203.124,341.742l-26.165,0.006c-4.666,0-8.448,3.78-8.448,8.447l-0.001,28.982
			c0,1.109,0.897,2.004,2.005,2.004h4.442c1.105,0,2.007-0.895,2.007-2.004v-14.896h26.16c1.111,0,2.008-0.897,2.008-2.007v-18.53
			C205.132,342.641,204.239,341.742,203.124,341.742"/>
		<path fill="#FFFFFF" d="M129.074,349.383c0-1.104,0.898-2.005,2.003-2.005h24.162c1.108,0,2.003-0.899,2.003-2.005v-1.627
			c0-1.104-0.893-2.003-2.003-2.003l-26.169,0.006c-4.659,0-8.442,3.778-8.442,8.447l-0.003,28.988c0,1.104,0.893,1.999,1.999,1.999
			h32.615c1.108,0,2.003-0.895,2.003-1.999v-1.63c0-1.106-0.893-2.001-2.003-2.001h-24.162c-1.104,0-2.003-0.901-2.003-2.005v-9.264
			h20.529c1.109,0,2.006-0.897,2.006-2.007v-1.627c0-1.108-0.896-2-2.006-2h-20.529V349.383z"/>
		<path fill="#FFFFFF" d="M223.656,373.546c0,1.104,0.899,2.005,2.004,2.005h24.164c1.108,0,2.001,0.896,2.001,2.001v1.63
			c0,1.104-0.894,1.999-2.001,1.999H217.21c-1.107,0-2.006-0.895-2.006-1.999l0.006-28.988c0-4.667,3.779-8.447,8.445-8.447
			l26.169-0.006c1.108,0,2.001,0.899,2.001,2.003v1.632c0,1.106-0.894,2.003-2.001,2.003H225.66c-1.104,0-2.004,0.898-2.004,2.005
			V373.546z"/>
		<path fill="#FFFFFF" d="M99.716,349.383c0-1.104-0.898-2.005-2.007-2.005H82.001c-1.106,0-2.002,0.897-2.002,2.005v29.8
			c0,1.104-0.895,1.999-2.001,1.999H73.55c-1.102,0-2.003-0.895-2.003-1.999v-28.988c0-4.669,3.78-8.447,8.444-8.447l26.189-0.006
			c1.107,0,2.002,0.899,2.002,2.003l-0.014,35.438c0,1.104-0.895,1.999-2.005,1.999h-4.443c-1.11,0-2.005-0.895-2.005-1.999V349.383
			z"/>
		<path fill="#FFFFFF" d="M290.071,373.546c0,1.104-0.899,2.005-1.998,2.005h-15.715c-1.107,0-2.006-0.901-2.006-2.005v-24.16
			c0-1.107,0.898-2.005,2.006-2.005h15.715c1.099,0,1.998,0.898,1.998,2.002V373.546z M298.522,350.195
			c0-4.667-3.781-8.447-8.448-8.447l-26.166-0.006c-1.106,0-2.005,0.899-2.005,2.003l0.001,35.438c0,1.104,0.897,2.002,2.004,2.002
			l32.61-0.003c1.109,0,2.005-0.895,2.005-1.999L298.522,350.195z"/>
		<path fill="#FFFFFF" d="M385.844,358.646h-19.719v-9.26c0-1.107,0.897-2.005,2.006-2.005h15.712c1.102,0,2.001,0.898,2.001,2.002
			V358.646z M394.295,350.195c0-4.667-3.783-8.447-8.448-8.447l-26.169-0.006c-1.108,0-2.001,0.899-2.001,2.003l0.003,35.438
			c0,1.104,0.89,2.002,1.998,2.002h4.443c1.104,0,2.004-0.898,2.004-2.002v-14.901h19.719v14.901c0,1.104,0.896,1.999,2.004,1.999
			h4.445c1.105,0,2.003-0.895,2.003-1.999L394.295,350.195z"/>
		<path fill="#FFFFFF" d="M339.958,341.742c3.56,0,6.448,2.891,6.448,6.449l0.002,30.986c0,1.109-0.897,2.004-2.003,2.004h-4.44
			c-1.106,0-2.007-0.895-2.007-2.004l-0.004-14.896h-19.712v14.896c0,1.109-0.898,2.004-2.007,2.004h-4.443
			c-1.105,0-2.006-0.895-2.006-2.004v-35.432c0-1.104,0.9-2.003,2.006-2.003h4.443c1.104,0,2.003,0.899,2.003,2.003v14.901h19.716
			l0.004-14.901C337.958,342.641,338.858,341.742,339.958,341.742z"/>
	</g>
</g>
</svg>
