<svg width="43" height="43" viewBox="0 0 43 43" fill="none" xmlns="http://www.w3.org/2000/svg">
    <path d="M38.0417 0H4.95825C2.21988 0 0 2.21987 0 4.95823V38.0416C0 40.7799 2.21988 42.9998 4.95825 42.9998H38.0417C40.7801 42.9998 43 40.7799 43 38.0416V4.95823C43 2.21987 40.7801 0 38.0417 0Z" fill="black"/>
    <path d="M28.339 13.0796C28.339 12.3102 27.6978 11.6691 26.9284 11.6691H15.9861C15.2167 11.6691 14.5756 12.3102 14.5756 13.0796V33.8101C14.5756 34.5795 13.9344 35.2206 13.165 35.2206H10.0875C9.31809 35.2206 8.67694 34.5795 8.67694 33.8101V13.6353C8.67694 10.3868 11.327 7.73668 14.5756 7.73668H32.7843C33.5537 7.73668 34.1948 8.37783 34.1948 9.14721V33.8101C34.1948 34.5795 33.5537 35.2206 32.7843 35.2206H29.7068C28.9374 35.2206 28.2962 34.5795 28.2962 33.8101V13.0796H28.339Z" fill="white"/>
</svg>