<?xml version="1.0" encoding="utf-8"?>
<!-- Generator: Adobe Illustrator 15.0.0, SVG Export Plug-In . SVG Version: 6.00 Build 0)  -->
<!DOCTYPE svg PUBLIC "-//W3C//DTD SVG 1.1//EN" "http://www.w3.org/Graphics/SVG/1.1/DTD/svg11.dtd">
<svg version="1.1" id="Layer_1" xmlns="http://www.w3.org/2000/svg" xmlns:xlink="http://www.w3.org/1999/xlink" x="0px" y="0px"
	 width="595.28px" height="841.89px" viewBox="0 0 595.28 841.89" enable-background="new 0 0 595.28 841.89" xml:space="preserve">
<g>
	<path fill="#FFFFFF" d="M98.2,421.311v-35.153H54.871v20.71c0,3.998-1.499,7.404-4.496,10.219
		c-2.998,2.816-6.769,4.224-11.31,4.224v-67.309c0-3.996,1.499-7.402,4.497-10.219c2.998-2.814,6.766-4.224,11.309-4.224v35.29H98.2
		v-20.847c0-3.996,1.499-7.402,4.497-10.219c2.998-2.814,6.766-4.224,11.309-4.224v67.31c0,3.998-1.499,7.404-4.497,10.219
		C106.511,419.903,102.741,421.311,98.2,421.311z"/>
	<path fill="#FFFFFF" d="M185.4,421.311h-42.783c-4.905,0-9.084-1.748-12.535-5.245c-3.453-3.496-5.178-7.698-5.178-12.604v-49.46
		c0-3.905,1.407-7.29,4.225-10.151c2.814-2.861,6.22-4.292,10.219-4.292h42.784c4.905,0,9.082,1.75,12.535,5.246
		c3.451,3.498,5.177,7.699,5.177,12.604v49.46c0,3.906-1.409,7.289-4.224,10.15C192.803,419.88,189.396,421.311,185.4,421.311z
		 M184.038,354.41c0-2.452-1.273-3.679-3.815-3.679h-39.514v55.728c0,2.453,1.272,3.679,3.815,3.679h39.514V354.41z"/>
	<path fill="#FFFFFF" d="M228.32,421.311c-4.905,0-9.085-1.748-12.536-5.245c-3.453-3.496-5.178-7.698-5.178-12.604v-49.46
		c0-3.905,1.407-7.29,4.224-10.151c2.814-2.861,6.221-4.292,10.219-4.292h29.567c4.905,0,9.105,1.75,12.603,5.246
		c3.496,3.498,5.246,7.699,5.246,12.604v15.805c3.815,1.001,6.949,3.089,9.402,6.268c2.453,3.181,3.678,6.812,3.678,10.9v30.929
		H228.32z M256.661,354.41c0-2.452-1.273-3.679-3.815-3.679h-26.434v18.122c0,2.453,1.271,3.679,3.815,3.679h26.434V354.41z
		 M269.741,387.384c0-2.453-1.273-3.679-3.814-3.679H228.32c-0.637,0-1.273-0.045-1.908-0.137v22.891
		c0,2.453,1.271,3.679,3.815,3.679h39.513V387.384z"/>
	<path fill="#FFFFFF" d="M357.352,372.532H312.66v-18.53c0-3.999-1.477-7.405-4.428-10.219c-2.953-2.817-6.744-4.224-11.377-4.224
		v67.31c0,3.904,1.431,7.289,4.292,10.15c2.86,2.861,6.289,4.292,10.286,4.292h42.648c4.905,0,9.082-1.75,12.535-5.245
		c3.451-3.498,5.178-7.699,5.178-12.604v-16.487c0-3.998-1.409-7.404-4.224-10.219C364.754,373.939,361.348,372.532,357.352,372.532
		z M356.125,406.459c0,2.452-1.272,3.679-3.814,3.679h-39.65v-26.433h43.465V406.459z"/>
	<path fill="#FFFFFF" d="M380.65,339.559v67.31c0,3.996,1.271,7.402,3.814,10.219c2.543,2.814,5.812,4.224,9.812,4.224v-67.309
		c0-3.999-1.295-7.405-3.884-10.219C387.804,340.965,384.555,339.559,380.65,339.559z"/>
	<path fill="#FFFFFF" d="M467.308,421.311h-42.783c-4.905,0-9.085-1.748-12.536-5.245c-3.453-3.496-5.178-7.698-5.178-12.604v-49.46
		c0-3.996,1.499-7.402,4.496-10.219c2.998-2.814,6.767-4.224,11.31-4.224v66.9c0,2.453,1.271,3.679,3.815,3.679h39.513v-56.136
		c0-3.996,1.499-7.402,4.497-10.219c2.998-2.814,6.766-4.224,11.309-4.224v67.31c0,3.906-1.409,7.289-4.224,10.15
		C474.71,419.88,471.304,421.311,467.308,421.311z"/>
	<path fill="#FFFFFF" d="M56.778,526.157c-4.905,0-9.084-1.748-12.535-5.246c-3.453-3.495-5.178-7.698-5.178-12.604v-49.46
		c0-3.904,1.408-7.289,4.224-10.15c2.814-2.861,6.221-4.292,10.219-4.292h49.46c3.36,0,6.041,1,8.039,2.997
		c1.998,1.999,2.998,4.724,2.998,8.176H54.871v55.728c0,2.452,1.271,3.679,3.815,3.679h44.282c3.36,0,6.041,1.001,8.039,2.997
		c1.998,2,2.998,4.725,2.998,8.176H56.778z"/>
	<path fill="#FFFFFF" d="M146.16,526.157c-4.906,0-9.085-1.748-12.536-5.246c-3.453-3.495-5.178-7.698-5.178-12.604v-49.46
		c0-3.904,1.408-7.289,4.224-10.15c2.814-2.861,6.221-4.292,10.219-4.292h49.459c3.359,0,6.04,1,8.039,2.997
		c1.997,1.999,2.998,4.724,2.998,8.176h-59.134v21.801h34.88c3.451,0,6.176,1,8.175,2.997c1.997,1.999,2.998,4.725,2.998,8.175
		h-46.053v22.755c0,2.452,1.271,3.679,3.814,3.679h44.282c3.359,0,6.04,1.001,8.039,2.997c1.997,2,2.998,4.725,2.998,8.176H146.16z"
		/>
	<path fill="#FFFFFF" d="M274.783,493.184h-44.691v18.53c0,3.998-1.477,7.404-4.428,10.219c-2.953,2.817-6.745,4.225-11.377,4.225
		v-67.31c0-3.904,1.431-7.289,4.292-10.15c2.861-2.861,6.289-4.292,10.287-4.292h42.647c4.906,0,9.083,1.75,12.536,5.246
		c3.451,3.497,5.177,7.698,5.177,12.603v16.487c0,3.998-1.409,7.404-4.224,10.219C282.186,491.776,278.779,493.184,274.783,493.184z
		 M273.557,459.257c0-2.452-1.273-3.679-3.815-3.679h-39.65v26.433h43.465V459.257z"/>
	<path fill="#FFFFFF" d="M312.662,526.157c-4.905,0-9.084-1.748-12.535-5.246c-3.453-3.495-5.178-7.698-5.178-12.604v-49.46
		c0-3.904,1.407-7.289,4.224-10.15c2.814-2.861,6.221-4.292,10.22-4.292h29.566c4.904,0,9.105,1.75,12.604,5.246
		c3.495,3.497,5.245,7.698,5.245,12.603v15.806c3.815,1.001,6.949,3.089,9.402,6.268c2.452,3.181,3.678,6.813,3.678,10.9v30.93
		H312.662z M341.003,459.257c0-2.452-1.273-3.679-3.815-3.679h-26.434v18.121c0,2.453,1.271,3.68,3.815,3.68h26.434V459.257z
		 M354.083,492.23c0-2.453-1.273-3.68-3.815-3.68h-37.605c-0.637,0-1.273-0.044-1.908-0.136v22.891c0,2.452,1.271,3.679,3.815,3.679
		h39.514V492.23z"/>
	<path fill="#FFFFFF" d="M440.467,526.157h-42.783c-4.905,0-9.085-1.748-12.536-5.246c-3.453-3.495-5.178-7.698-5.178-12.604v-49.46
		c0-3.996,1.499-7.402,4.496-10.219c2.998-2.815,6.767-4.224,11.31-4.224v66.9c0,2.452,1.271,3.679,3.815,3.679h39.513v-56.137
		c0-3.996,1.499-7.402,4.497-10.219c2.998-2.815,6.766-4.224,11.309-4.224v67.309c0,3.907-1.409,7.29-4.224,10.151
		C447.869,524.727,444.463,526.157,440.467,526.157z"/>
	<path fill="#FFFFFF" d="M483.521,526.157c-4.905,0-9.084-1.748-12.535-5.246c-3.453-3.495-5.178-7.698-5.178-12.604v-49.46
		c0-3.904,1.406-7.289,4.225-10.15c2.813-2.861,6.22-4.292,10.219-4.292h49.459c3.36,0,6.04,1,8.039,2.997
		c1.997,1.999,2.998,4.724,2.998,8.176h-59.135v55.728c0,2.452,1.271,3.679,3.815,3.679h44.282c3.36,0,6.04,1.001,8.039,2.997
		c1.997,2,2.998,4.725,2.998,8.176H483.521z"/>
	<path fill="#FFFFFF" d="M470.227,315.731h-37.284c-2.213,0-4.101,1.271-5.661,3.815c-1.559,2.542-2.339,5.812-2.339,9.811h37.284
		c2.215,0,4.102-1.295,5.66-3.884C469.447,322.885,470.227,319.636,470.227,315.731z"/>
</g>
</svg>
