<svg width="18" height="21" viewBox="0 0 18 21" fill="none" xmlns="http://www.w3.org/2000/svg">
    <path fill-rule="evenodd" clip-rule="evenodd" d="M5.5864 12.2976C5.48224 11.9226 5.89888 11.9226 6.19053 11.8809L8.00292 11.6101C8.14875 11.5684 8.16958 11.4643 8.25291 11.3185C8.52372 10.756 8.83621 10.0894 9.10702 9.56856C9.16952 9.4644 9.25285 9.36024 9.4195 9.38107C9.58616 9.4019 9.62783 9.52689 9.69032 9.63105L10.5653 11.3809C10.6486 11.5476 10.6486 11.5893 10.8569 11.6309C11.1277 11.6726 12.961 11.9018 13.086 11.9851C13.4609 12.2559 12.8151 12.6934 12.6276 12.9017C12.4193 13.11 12.2943 13.2558 12.1068 13.4225C11.9194 13.5892 11.7319 13.7558 11.5652 13.9433C11.3986 14.11 11.5652 14.5683 11.586 14.7974C11.6277 15.0891 11.6902 15.4015 11.7319 15.714C11.7735 15.9432 11.8985 16.4223 11.7735 16.5681C11.5652 16.7973 11.2527 16.5265 11.0444 16.4223C10.5861 16.1723 10.1486 15.9432 9.66949 15.714C9.27368 15.5057 9.33618 15.589 8.9612 15.7765C8.75288 15.8807 7.35713 16.6515 7.23213 16.6515C7.06548 16.6723 6.96132 16.5681 6.91965 16.4431C6.87799 16.2973 7.19047 14.6308 7.2738 14.2349C7.31546 14.0058 7.25297 13.985 7.14881 13.8808C6.91965 13.6725 5.60723 12.3809 5.5864 12.2976Z" fill="#D3D3D3" stroke="#D3D3D3" stroke-width="0.2" stroke-miterlimit="22.9256"/>
    <path fill-rule="evenodd" clip-rule="evenodd" d="M13.2526 8.36029C13.2943 8.15197 13.2109 7.83948 13.2943 7.65199L13.3359 7.71449C13.4609 7.73532 14.0651 8.31862 14.19 8.44361C14.2525 8.50611 14.2734 8.54778 14.3359 8.61027C17.9607 12.8392 15.2525 19.0263 10.0445 19.568C6.87798 19.9013 4.44063 17.943 3.48235 15.9848C2.37825 13.7141 2.54491 11.1101 4.06565 9.04775C4.16981 8.92275 4.66978 8.42278 4.31564 8.31862C4.00315 8.23529 3.23237 9.63104 3.12821 9.81853C2.0866 11.9226 2.1491 14.2558 3.1907 16.2556C4.21148 18.2555 6.73216 20.2971 10.0653 19.9638C12.961 19.6721 15.2317 17.6306 16.0024 15.2557C16.9607 12.2976 16.0649 9.54772 13.8151 7.5895L13.7317 7.527C13.6692 7.44367 13.3568 7.23535 13.2734 7.19369C13.2318 6.63122 13.2734 5.94376 13.2734 5.3813C13.2734 5.15214 13.3568 4.69384 13.0859 4.67301C12.7943 4.65217 12.8776 5.13131 12.8776 5.3813C12.8776 5.98543 12.8776 6.56873 12.8776 7.17286C12.8776 7.36035 12.8151 8.36029 12.9401 8.44361C13.0443 8.52694 13.2109 8.48528 13.2318 8.36029H13.2526Z" fill="#D3D3D3" stroke="#D3D3D3" stroke-width="0.2" stroke-miterlimit="22.9256"/>
    <path fill-rule="evenodd" clip-rule="evenodd" d="M9.56532 7.777C9.58615 7.48535 9.52365 6.5479 9.60698 6.38125C9.69031 6.36042 9.69031 6.36042 9.77364 6.38125L9.91946 6.42291C10.3569 6.42291 10.9819 6.56874 11.3777 6.69373C11.7527 6.81872 12.2318 7.06871 12.3568 7.00621C12.461 6.96455 12.5026 6.79789 12.4193 6.71456C12.2527 6.50624 10.8777 6.15209 10.3986 6.0896C10.1694 6.04793 9.7528 6.04793 9.58615 6.00627C9.54448 5.77712 9.56532 2.15233 9.56532 1.52737C9.56532 1.27738 9.60698 1.13156 9.46115 1.00657C9.06534 0.944071 9.16951 1.33988 9.16951 1.67319V7.46452C9.16951 7.61034 9.14867 7.79783 9.232 7.88116C9.33616 7.98532 9.50282 7.92282 9.52365 7.79783L9.56532 7.777Z" fill="#D3D3D3" stroke="#D3D3D3" stroke-width="0.2" stroke-miterlimit="22.9256"/>
    <path fill-rule="evenodd" clip-rule="evenodd" d="M4.89894 4.96466V7.527C4.89894 7.71449 4.85727 8.04781 4.96144 8.15197C5.02393 8.21446 5.12809 8.23529 5.21142 8.1728C5.31558 8.1103 5.27392 8.00614 5.29475 7.88115C5.31558 7.69366 5.94054 7.36035 6.1072 7.25619C6.73216 6.90204 7.41962 6.63122 8.21124 6.4854C8.3779 6.44373 8.69038 6.46457 8.75288 6.33957C8.79454 6.23541 8.77371 6.13125 8.69038 6.08959C8.60705 6.04792 8.48206 6.06876 8.3779 6.08959C6.44051 6.38124 5.48224 7.27702 5.29475 7.31868V4.94382C5.29475 4.61051 4.91977 4.54801 4.91977 4.96466H4.89894Z" fill="#D3D3D3" stroke="#D3D3D3" stroke-width="0.2" stroke-miterlimit="22.9256"/>
    <path fill-rule="evenodd" clip-rule="evenodd" d="M6.96131 7.42286C6.64883 7.50619 5.91971 7.98532 5.66972 8.19364C4.66978 8.96443 3.94066 10.006 3.56568 11.256C3.54485 11.3601 3.46152 11.5684 3.46152 11.6726C3.44069 11.8393 3.54485 11.9851 3.73234 11.9018C3.85733 11.8601 3.85733 11.6934 3.899 11.5476C4.31564 9.94354 5.44057 8.58945 6.91965 7.86033C7.04464 7.79783 7.19047 7.777 7.23213 7.63118C7.27379 7.46452 7.1488 7.36036 6.98215 7.40202L6.96131 7.42286Z" fill="#D3D3D3" stroke="#D3D3D3" stroke-width="0.2" stroke-miterlimit="22.9256"/>
    <path fill-rule="evenodd" clip-rule="evenodd" d="M16.7107 6.7979C16.5649 6.8604 16.6066 7.06872 16.6066 7.25621V10.0477C16.6066 10.2769 16.5024 11.0268 16.8774 10.881C17.0649 10.7977 16.9815 10.0894 16.9815 9.86022V7.06872C16.9815 6.88123 16.919 6.71457 16.7107 6.7979Z" fill="#D3D3D3" stroke="#D3D3D3" stroke-width="0.2" stroke-miterlimit="22.9256"/>
    <path fill-rule="evenodd" clip-rule="evenodd" d="M10.4819 2.23567V4.98551C10.4819 5.33965 10.8777 5.31882 10.8777 4.98551V2.17318C10.8777 1.81903 10.4819 1.77737 10.4819 2.23567Z" fill="#D3D3D3" stroke="#D3D3D3" stroke-width="0.2" stroke-miterlimit="22.9256"/>
    <path fill-rule="evenodd" clip-rule="evenodd" d="M1.37831 14.1308C1.44081 14.0266 1.39914 12.2559 1.39914 11.8809C1.39914 11.3809 1.08666 11.5684 1.045 11.6309C0.982501 11.7351 1.00333 13.5266 1.00333 13.8808C1.00333 14.4016 1.31581 14.2141 1.35748 14.1308H1.37831Z" fill="#D3D3D3" stroke="#D3D3D3" stroke-width="0.2" stroke-miterlimit="22.9256"/>
    <path fill-rule="evenodd" clip-rule="evenodd" d="M5.87804 3.8189V5.46463C5.87804 5.63129 5.89887 5.75628 6.08636 5.75628C6.25302 5.75628 6.27385 5.61046 6.27385 5.4438V3.8189C6.27385 3.61058 6.31551 3.40226 6.08636 3.38142C5.83637 3.36059 5.87804 3.61058 5.87804 3.8189Z" fill="#D3D3D3" stroke="#D3D3D3" stroke-width="0.2" stroke-miterlimit="22.9256"/>
    <path fill-rule="evenodd" clip-rule="evenodd" d="M13.0026 2.92313C12.836 3.02729 12.8984 3.27727 12.8984 3.65225C12.8984 3.83974 12.8568 4.36054 13.1901 4.17305C13.3359 4.08973 13.2734 3.61059 13.2734 3.44393C13.2734 3.23561 13.2943 2.73564 12.9818 2.94396L13.0026 2.92313Z" fill="#D3D3D3" stroke="#D3D3D3" stroke-width="0.2" stroke-miterlimit="22.9256"/>
    <path fill-rule="evenodd" clip-rule="evenodd" d="M1.14916 9.63105C0.940837 9.71438 1.02417 10.1102 1.02417 10.3393C1.02417 10.4643 0.961669 11.0268 1.29498 10.881C1.46164 10.8185 1.39914 10.3602 1.39914 10.1727C1.39914 9.96437 1.44081 9.50606 1.14916 9.63105Z" fill="#D3D3D3" stroke="#D3D3D3" stroke-width="0.2" stroke-miterlimit="22.9256"/>
    <path fill-rule="evenodd" clip-rule="evenodd" d="M9.56533 7.77699C9.66949 7.69366 9.60699 7.25619 9.60699 7.11036C9.60699 6.88121 9.60699 6.63123 9.60699 6.40207L9.91948 6.4229L9.77365 6.38124C9.69032 6.36041 9.69032 6.36041 9.60699 6.38124C9.5445 6.5479 9.60699 7.50617 9.56533 7.77699Z" fill="#D3D3D3" stroke="#D3D3D3" stroke-width="0.2" stroke-miterlimit="22.9256"/>
    <path fill-rule="evenodd" clip-rule="evenodd" d="M13.2526 8.3603C13.3568 8.27697 13.2943 7.88116 13.2943 7.73534C13.3151 7.65201 13.2734 7.69367 13.3359 7.7145L13.2943 7.65201C13.1901 7.8395 13.2734 8.15198 13.2526 8.3603Z" fill="#D3D3D3" stroke="#D3D3D3" stroke-width="0.2" stroke-miterlimit="22.9256"/>
    <path fill-rule="evenodd" clip-rule="evenodd" d="M13.835 7.58885L13.7526 7.52701L13.835 7.58885Z" fill="#D3D3D3" stroke="#D3D3D3" stroke-width="0.2" stroke-miterlimit="22.9256"/>
</svg>