<svg xmlns="http://www.w3.org/2000/svg" viewBox="0 0 282.92 33.6">
    <title>ПЕРСОНА</title>
    <path d="M75.57.26c0,1.12,0,2.24,0,3.36.06.93-.36,1.15-1.2,1.15-4.52,0-9,0-13.55,0-4,0-8,0-12,0-1.05,0-1.39.31-1.35,1.37.08,2.28,0,4.56,0,6.84,0,1.61,0,1.62,1.68,1.62,4.08,0,8.16,0,12.24,0,1.15,0,1.51.33,1.5,1.49,0,3.14,0,3.14-3.16,3.14-3.68,0-7.36,0-11,0-.94,0-1.26.28-1.23,1.23.06,2.24,0,4.48,0,6.72,0,1.74,0,1.75,1.8,1.75h24c2.59,0,2.24-.1,2.24,2.27,0,2.71.31,2.41-2.45,2.41H43.25c-1.65,0-1.65,0-1.65-1.67,0-8.24.09-16.48,0-24.71C41.5,4,42,1.31,45.36,0h.48a2.52,2.52,0,0,0,1.29.11H74.29C74.71.13,75.16,0,75.57.26Z"/>
    <path d="M240.68.49q0,15.9,0,31.79c0,.92-.28,1.32-1.23,1.27-1.2-.05-2.4-.06-3.6,0-1,0-1.21-.39-1.2-1.29,0-3.88,0-7.76,0-11.64,0-1.06-.26-1.45-1.4-1.44q-10.5.08-21,0c-1,0-1.39.27-1.38,1.35.06,3.88,0,7.76,0,11.64,0,1.15-.41,1.46-1.46,1.4a24.27,24.27,0,0,0-3.24,0c-1.09.08-1.35-.37-1.34-1.39,0-7.32,0-14.64,0-22,0-1.6,0-3.2,0-4.8A4.85,4.85,0,0,1,207.85.5c.23-.11.42-.23.47-.5h2.4c.84.35.81,1.11.82,1.83,0,2.8,0,5.6,0,8.4,0,.44,0,.88,0,1.32,0,2,.45,2.49,2.47,2.49,4.08,0,8.16,0,12.24,0,1.92,0,3.84,0,5.76,0,1.6,0,2.07-.49,2.09-2.1,0-3.28,0-6.56,0-9.84,0-.65-.16-1.39.5-1.88,1.82-.21,3.65,0,5.48-.09A.55.55,0,0,1,240.68.49Z"/>
    <path d="M35.71.3q0,16.07,0,32.14c0,.74-.25,1.12-1,1.11-1.32,0-2.64,0-4,0-.69,0-.91-.36-.91-1s0-1.36,0-2c0-8.24,0-16.47,0-24.71,0-.87-.28-1.08-1.09-1.08-7.2,0-14.39,0-21.59,0-1.17,0-1.27.54-1.27,1.47Q6,19,6,31.88c0,1.65,0,1.65-1.66,1.67L0,33.6V3.84C.31,3,.2,2.08.86,1.33,1.91.13,3.27.15,4.65.12H20.88c4.52,0,9,0,13.57,0C34.87.13,35.33-.05,35.71.3Z"/>
    <path d="M127.18.22H157a14.58,14.58,0,0,1,.15,3.93c0,.51-.35.66-.81.66H154.4c-7.92,0-15.83,0-23.75,0-1.15,0-1.6.23-1.59,1.51q.09,10.61,0,21.23c0,1.15.33,1.51,1.49,1.5,8.28,0,16.55,0,24.83,0C157,29,157,29,157,30.64c0,3.36.49,2.9-2.92,2.91q-14.69,0-29.39,0c-1.59,0-1.59,0-1.59-1.6q0-13.31,0-26.63C123.13,2.48,124.5.78,127.18.22Z"/>
    <path d="M282.75.21a2.26,2.26,0,0,1,.16,1.17q-.08,15.47-.14,30.93c0,.92-.27,1.31-1.23,1.26a31.79,31.79,0,0,0-3.36,0c-.94,0-1.25-.3-1.24-1.25,0-3.92,0-7.83,0-11.75,0-1.1-.32-1.44-1.42-1.43q-10.91.06-21.82,0c-1,0-1.29.35-1.28,1.32,0,4,0,7.91,0,11.87,0,1-.3,1.29-1.22,1.25a31.94,31.94,0,0,0-3.36,0c-1,.07-1.27-.4-1.26-1.34,0-4.68,0-9.35,0-14q0-6.29,0-12.59c0-3.15.85-4.33,3.85-5.4a1.22,1.22,0,0,0,.28-.2h.48a2.53,2.53,0,0,0,1.29.11h28.87A3.41,3.41,0,0,1,282.75.21ZM253.69,4.78c-1,0-1.24.32-1.22,1.24,0,2.48,0,5,0,7.44,0,.84.31,1.12,1.13,1.12q11.15,0,22.31,0c.83,0,1.12-.31,1.11-1.13,0-2.48,0-5,0-7.44,0-1-.35-1.22-1.27-1.21-3.64,0-7.28,0-10.91,0S257.4,4.83,253.69,4.78Z"/>
    <path d="M167.26.21h6l22.53,0,3.36,0c0,10.72,0,21.44,0,32.16,0,1.22-.7,1.13-1.48,1.13H177.46c-4.32,0-8.64,0-13,0-1.18,0-1.57-.37-1.56-1.59.05-8.88,0-17.76,0-26.64C163,2.39,164.52.56,167.26.21Zm2.88,4.57c-.94,0-1.26.29-1.25,1.23q0,10.85,0,21.71c0,1,.27,1.33,1.28,1.32Q181,29,191.89,29c1,0,1.38-.32,1.38-1.36q-.05-10.79,0-21.59c0-1-.29-1.32-1.29-1.31-3.64.05-7.28,0-10.91,0S173.78,4.82,170.15,4.78Z"/>
    <path d="M85.89.2l28.54,0c.48,0,1,0,1.44,0,.93-.07,1.27.34,1.27,1.27,0,5.88,0,11.75-.05,17.63-1.28,0-2.56.06-3.83.07H88.91c-1.54,0-1.55,0-1.55,1.59,0,3.8,0,7.59,0,11.39,0,1-.26,1.46-1.33,1.39-1.24-.07-2.48,0-3.72,0-.66,0-1-.29-.94-.94,0-.16,0-.32,0-.48q0-13.43,0-26.86C81.41,2.32,83.11.44,85.89.2Zm24.33,14.42c.79,0,1.16-.21,1.15-1.08q-.06-3.84,0-7.67c0-.84-.3-1.1-1.12-1.1q-10.91,0-21.82,0c-.87,0-1.09.33-1.08,1.13,0,2.48.05,5,0,7.43,0,1,.31,1.31,1.3,1.29,3.56,0,7.11,0,10.67,0S106.58,14.6,110.22,14.62Z"/>
</svg>