<?xml version="1.0" encoding="utf-8"?>
<!-- Generator: Adobe Illustrator 24.3.0, SVG Export Plug-In . SVG Version: 6.00 Build 0)  -->
<svg version="1.1" id="Слой_1" xmlns="http://www.w3.org/2000/svg" xmlns:xlink="http://www.w3.org/1999/xlink" x="0px" y="0px"
	 viewBox="0 0 144 17" style="enable-background:new 0 0 144 17;" xml:space="preserve">
<style type="text/css">
	.st0{fill:#211C1D;}
</style>
<g>
	<path class="st0" d="M56.38,6.42c0,0.48-0.39,0.86-0.86,0.86l-7.63,0V3.29c0-0.48,0.39-0.86,0.86-0.86h6.77
		c0.48,0,0.86,0.39,0.86,0.86L56.38,6.42z M59.16,0L47.88,0c-2.01,0-3.64,1.63-3.64,3.64l0,12.49c0,0.48,0.39,0.86,0.86,0.86h1.92
		c0.48,0,0.86-0.39,0.86-0.86V9.71h11.28c0.48,0,0.86-0.39,0.86-0.86V0.86C60.02,0.39,59.64,0,59.16,0"/>
	<path class="st0" d="M27.24,3.29c0-0.48,0.39-0.86,0.86-0.86h10.41c0.48,0,0.86-0.39,0.86-0.86v-0.7C39.38,0.39,39,0,38.52,0
		L27.24,0c-2.01,0-3.64,1.63-3.64,3.64l0,12.49c0,0.48,0.39,0.86,0.86,0.86h14.06c0.48,0,0.86-0.39,0.86-0.86v-0.7
		c0-0.48-0.39-0.86-0.86-0.86H28.11c-0.48,0-0.86-0.39-0.86-0.86V9.72h8.85c0.48,0,0.86-0.39,0.86-0.86l0-0.7
		c0-0.48-0.39-0.86-0.86-0.86l-8.85,0L27.24,3.29L27.24,3.29z"/>
	<path class="st0" d="M68.01,13.71c0,0.48,0.39,0.86,0.86,0.86h10.41c0.48,0,0.86,0.39,0.86,0.86v0.7c0,0.48-0.39,0.86-0.86,0.86
		H65.23c-0.48,0-0.86-0.39-0.86-0.86l0-12.49C64.37,1.63,66,0,68.01,0l11.28,0c0.48,0,0.86,0.39,0.86,0.86v0.7
		c0,0.48-0.39,0.86-0.86,0.86H68.87c-0.48,0-0.86,0.39-0.86,0.86L68.01,13.71L68.01,13.71z"/>
	<path class="st0" d="M14.59,3.29c0-0.48-0.39-0.86-0.86-0.86l-6.77,0c-0.48,0-0.86,0.39-0.86,0.86v12.84C6.09,16.61,5.7,17,5.23,17
		H3.31c-0.48,0-0.86-0.39-0.86-0.86V3.64C2.45,1.63,4.08,0,6.09,0l11.29,0c0.48,0,0.86,0.39,0.86,0.86l-0.01,15.27
		c0,0.48-0.39,0.86-0.86,0.86h-1.92c-0.48,0-0.86-0.39-0.86-0.86L14.59,3.29L14.59,3.29z"/>
	<path class="st0" d="M96.63,13.71c0,0.48-0.39,0.86-0.86,0.86H89c-0.48,0-0.86-0.39-0.86-0.86V3.29c0-0.48,0.38-0.86,0.86-0.86
		l6.77,0c0.48,0,0.86,0.39,0.86,0.86V13.71z M100.27,3.64c0-2.01-1.63-3.64-3.64-3.64L85.35,0c-0.48,0-0.86,0.39-0.86,0.86v15.27
		c0,0.48,0.39,0.86,0.86,0.86l14.06,0c0.48,0,0.86-0.39,0.86-0.86L100.27,3.64z"/>
	<path class="st0" d="M137.91,7.29h-8.5V3.29c0-0.48,0.39-0.86,0.86-0.86l6.77,0c0.48,0,0.86,0.39,0.86,0.86L137.91,7.29
		L137.91,7.29z M141.55,3.64c0-2.01-1.63-3.64-3.64-3.64l-11.28,0c-0.48,0-0.86,0.39-0.86,0.86v15.27c0,0.48,0.39,0.86,0.86,0.86
		h1.91c0.48,0,0.86-0.39,0.86-0.86V9.71h8.5v6.42c0,0.48,0.39,0.86,0.87,0.86h1.92c0.48,0,0.86-0.39,0.86-0.86L141.55,3.64
		L141.55,3.64z"/>
	<path class="st0" d="M118.13,0c1.53,0,2.78,1.24,2.78,2.78l0,13.36c0,0.48-0.39,0.86-0.86,0.86h-1.91c-0.48,0-0.86-0.39-0.86-0.86
		V9.71h-8.5v6.42c0,0.48-0.39,0.86-0.86,0.86h-1.92c-0.48,0-0.86-0.39-0.86-0.86V0.86c0-0.48,0.39-0.86,0.86-0.86h1.92
		c0.48,0,0.86,0.39,0.86,0.86v6.42h8.5V0.86C117.27,0.39,117.66,0,118.13,0L118.13,0z"/>
</g>
</svg>
