<?xml version="1.0" encoding="utf-8"?>
<!-- Generator: Adobe Illustrator 24.3.0, SVG Export Plug-In . SVG Version: 6.00 Build 0)  -->
<svg version="1.1" id="Слой_1" xmlns="http://www.w3.org/2000/svg" xmlns:xlink="http://www.w3.org/1999/xlink" x="0px" y="0px"
	 viewBox="0 0 144 17" style="enable-background:new 0 0 144 17;" xml:space="preserve">
<style type="text/css">
	.st0{fill:#FFFFFF;}
</style>
<g>
	<path class="st0" d="M56.91,6.49c0,0.46-0.37,0.83-0.84,0.83l-7.38,0V3.47c0-0.46,0.37-0.83,0.83-0.83h6.54
		c0.46,0,0.83,0.37,0.83,0.83L56.91,6.49z M59.59,0.29l-10.9,0c-1.94,0-3.52,1.58-3.52,3.52l0,12.07c0,0.46,0.37,0.83,0.83,0.83
		h1.85c0.46,0,0.83-0.37,0.83-0.83v-6.2h10.9c0.46,0,0.83-0.37,0.83-0.83V1.12C60.43,0.66,60.05,0.29,59.59,0.29"/>
	<path class="st0" d="M28.76,3.47c0-0.46,0.37-0.83,0.83-0.83h10.06c0.46,0,0.83-0.37,0.83-0.83V1.12c0-0.46-0.37-0.83-0.83-0.83
		l-10.9,0c-1.94,0-3.52,1.57-3.52,3.52l0,12.07c0,0.46,0.37,0.83,0.83,0.83h13.58c0.46,0,0.83-0.37,0.83-0.83V15.2
		c0-0.46-0.37-0.83-0.83-0.83H29.59c-0.46,0-0.83-0.37-0.83-0.83V9.68h8.55c0.46,0,0.83-0.37,0.83-0.84l0-0.68
		c0-0.46-0.37-0.83-0.84-0.83l-8.55,0L28.76,3.47L28.76,3.47z"/>
	<path class="st0" d="M68.14,13.53c0,0.46,0.37,0.83,0.83,0.83h10.06c0.46,0,0.83,0.37,0.83,0.83v0.68c0,0.46-0.37,0.83-0.83,0.83
		H65.46c-0.46,0-0.83-0.37-0.83-0.83l0-12.07c0-1.94,1.58-3.52,3.52-3.52l10.9,0c0.46,0,0.83,0.37,0.83,0.83V1.8
		c0,0.46-0.37,0.83-0.83,0.83H68.98c-0.46,0-0.83,0.37-0.83,0.83L68.14,13.53L68.14,13.53z"/>
	<path class="st0" d="M16.53,3.47c0-0.46-0.37-0.83-0.83-0.83l-6.54,0c-0.46,0-0.83,0.37-0.83,0.84v12.41
		c0,0.46-0.37,0.83-0.83,0.83H5.63c-0.46,0-0.83-0.37-0.83-0.83V3.81c0-1.94,1.57-3.52,3.52-3.52l10.9,0c0.46,0,0.83,0.37,0.83,0.83
		l-0.01,14.76c0,0.46-0.37,0.83-0.83,0.83h-1.85c-0.46,0-0.83-0.37-0.83-0.83L16.53,3.47L16.53,3.47z"/>
	<path class="st0" d="M95.8,13.53c0,0.46-0.37,0.83-0.83,0.83h-6.54c-0.46,0-0.83-0.37-0.83-0.83V3.47c0-0.46,0.37-0.83,0.83-0.83
		l6.54,0c0.46,0,0.83,0.37,0.83,0.83V13.53z M99.32,3.81c0-1.94-1.57-3.52-3.52-3.52l-10.9,0c-0.46,0-0.83,0.37-0.83,0.83v14.76
		c0,0.46,0.37,0.84,0.83,0.84l13.58,0c0.46,0,0.83-0.37,0.83-0.84L99.32,3.81z"/>
	<path class="st0" d="M135.68,7.33h-8.21V3.47c0-0.46,0.37-0.83,0.83-0.83l6.54,0c0.46,0,0.83,0.37,0.83,0.83L135.68,7.33
		L135.68,7.33z M139.2,3.81c0-1.94-1.58-3.52-3.52-3.52l-10.9,0c-0.46,0-0.83,0.37-0.83,0.83v14.76c0,0.46,0.37,0.84,0.83,0.84h1.85
		c0.46,0,0.83-0.37,0.83-0.84v-6.2h8.21v6.2c0,0.46,0.37,0.84,0.84,0.84h1.85c0.46,0,0.83-0.37,0.83-0.84L139.2,3.81L139.2,3.81z"/>
	<path class="st0" d="M116.57,0.29c1.48,0,2.68,1.2,2.68,2.68l0,12.91c0,0.46-0.37,0.83-0.83,0.83h-1.85
		c-0.46,0-0.83-0.37-0.83-0.83v-6.2h-8.21v6.2c0,0.46-0.37,0.83-0.83,0.83h-1.85c-0.46,0-0.84-0.37-0.84-0.83V1.12
		c0-0.46,0.37-0.83,0.83-0.83h1.85c0.46,0,0.83,0.37,0.83,0.83v6.21h8.21V1.12C115.74,0.66,116.11,0.29,116.57,0.29L116.57,0.29z"/>
</g>
</svg>
