<svg xmlns="http://www.w3.org/2000/svg" viewBox="0 0 265.81 33.7">
    <defs>
        <style>.cls-1{fill:#c50000;}.cls-2{fill:#7a0000;}.cls-3{fill:#fff;}</style>
    </defs>
    <title>Prime Production</title>
    <path d="M46.28,19.54V3.05h8.48a5.71,5.71,0,0,1,2,.32,4.09,4.09,0,0,1,2.51,2.41,5.55,5.55,0,0,1,.34,2,5.63,5.63,0,0,1-.34,2,4.39,4.39,0,0,1-1,1.5,4.15,4.15,0,0,1-1.53,1,5.71,5.71,0,0,1-2,.33H51.83a9.49,9.49,0,0,0-1.59.14,4.75,4.75,0,0,0-1.55.53v6.34Zm8.47-9.44c1.62,0,2.43-.78,2.43-2.33A2.19,2.19,0,0,0,56.56,6a2.73,2.73,0,0,0-1.81-.52H48.69v5.28a4.39,4.39,0,0,1,1.54-.55,12.05,12.05,0,0,1,1.6-.11Z"/>
    <path d="M71.75,16.09a1.8,1.8,0,0,0,.44.55,1.49,1.49,0,0,0,.51.3,2.69,2.69,0,0,0,.52.14l.45,0h.8v2.43h-1a8.44,8.44,0,0,1-.87,0,2.88,2.88,0,0,1-.85-.22,3.05,3.05,0,0,1-.82-.54,4.93,4.93,0,0,1-.79-1l-1.77-2.88h-.16c-.44,0-.81,0-1.11,0a4.23,4.23,0,0,0-.8.12,5.34,5.34,0,0,0-.64.21c-.2.08-.42.18-.65.3v4H62.68V8.09h7.39a4,4,0,0,1,1.45.25,3.56,3.56,0,0,1,1.14.72,3.36,3.36,0,0,1,.75,1.1,3.48,3.48,0,0,1,.26,1.39A3.3,3.3,0,0,1,73,13.7,4,4,0,0,1,71,14.89Zm-1.68-3.51a1.48,1.48,0,0,0,.9-.28,1,1,0,0,0,.38-.83,1.07,1.07,0,0,0-.15-.6,1.13,1.13,0,0,0-.39-.33,1.71,1.71,0,0,0-.54-.14l-.6,0H65v2.87a4.67,4.67,0,0,1,1.47-.52,10.36,10.36,0,0,1,1.73-.14Z"/>
    <path d="M78.89,19.54V8.09h2.26V19.54Z"/>
    <path d="M99.23,9.92v9.62H96.74v-6.7l-4,5.4-4-5.4v6.7h-2.5V9.92L85,8.09H87.8l4.89,6.48,4.89-6.48h2.78Z"/>
    <path d="M106.71,17.24h7.18v2.3h-9.44V8.09h9v2.28h-6.76v2.78a4.23,4.23,0,0,1,1.67-.55,16.78,16.78,0,0,1,1.91-.11H112v2.28h-1.68q-.8,0-1.32,0a6.68,6.68,0,0,0-.89.1,2.92,2.92,0,0,0-.69.2l-.68.33Z"/>
    <path d="M124,19.54V3.05h8.48a5.71,5.71,0,0,1,2,.32,4,4,0,0,1,2.5,2.41,5.34,5.34,0,0,1,.35,2,5.41,5.41,0,0,1-.35,2,4.36,4.36,0,0,1-1,1.5,4.15,4.15,0,0,1-1.53,1,5.71,5.71,0,0,1-2,.33h-2.93a9.49,9.49,0,0,0-1.59.14,4.68,4.68,0,0,0-1.55.53v6.34Zm8.47-9.44c1.62,0,2.43-.78,2.43-2.33A2.19,2.19,0,0,0,134.26,6a2.76,2.76,0,0,0-1.82-.52h-6v5.28a4.33,4.33,0,0,1,1.54-.55,11.94,11.94,0,0,1,1.6-.11Z"/>
    <path d="M149.45,16.09a1.8,1.8,0,0,0,.44.55,1.49,1.49,0,0,0,.51.3,2.69,2.69,0,0,0,.52.14l.45,0h.8v2.43h-1a8.44,8.44,0,0,1-.87,0,2.84,2.84,0,0,1-1.67-.76,4.94,4.94,0,0,1-.8-1l-1.77-2.88h-.15c-.44,0-.82,0-1.12,0A4.25,4.25,0,0,0,144,15a4.8,4.8,0,0,0-.64.21q-.3.12-.66.3v4h-2.32V8.09h7.39a3.89,3.89,0,0,1,1.44.25,3.35,3.35,0,0,1,1.14.72,3.24,3.24,0,0,1,.76,1.1,3.66,3.66,0,0,1,.26,1.39,3.3,3.3,0,0,1-.68,2.15,4,4,0,0,1-1.95,1.19Zm-1.68-3.51a1.45,1.45,0,0,0,.89-.28.94.94,0,0,0,.39-.83,1,1,0,0,0-.16-.6,1.1,1.1,0,0,0-.38-.33,1.78,1.78,0,0,0-.54-.14l-.6,0H142.7v2.87a4.85,4.85,0,0,1,1.47-.52,10.57,10.57,0,0,1,1.74-.14Z"/>
    <path d="M169,13.7a5.76,5.76,0,0,1-.58,2.61,6,6,0,0,1-1.52,2,6.6,6.6,0,0,1-2.17,1.22,7.76,7.76,0,0,1-2.53.42,8,8,0,0,1-2.53-.41,6.71,6.71,0,0,1-2.16-1.2,5.75,5.75,0,0,1-2.07-4.52,5.58,5.58,0,0,1,.58-2.59,5.79,5.79,0,0,1,1.53-1.9,6.88,6.88,0,0,1,2.17-1.17,8.12,8.12,0,0,1,2.5-.4,8.53,8.53,0,0,1,2.51.38,6.41,6.41,0,0,1,2.17,1.13,5.51,5.51,0,0,1,1.52,1.88A5.69,5.69,0,0,1,169,13.7Zm-2.41,0a3.41,3.41,0,0,0-.38-1.65,3.44,3.44,0,0,0-1-1.15,4.2,4.2,0,0,0-1.4-.66,6.16,6.16,0,0,0-1.6-.21,5.81,5.81,0,0,0-1.62.22,3.92,3.92,0,0,0-1.39.68,3.76,3.76,0,0,0-1,4.54,3.51,3.51,0,0,0,1,1.17,4.05,4.05,0,0,0,1.4.68,5.81,5.81,0,0,0,1.62.22,5,5,0,0,0,1.59-.25,4.64,4.64,0,0,0,1.39-.74,3.66,3.66,0,0,0,1-1.21A3.45,3.45,0,0,0,166.63,13.73Z"/>
    <path d="M171.78,8.09h7.1a7.33,7.33,0,0,1,2.35.36,5.05,5.05,0,0,1,1.84,1.09,4.87,4.87,0,0,1,1.18,1.77,6.46,6.46,0,0,1,.42,2.42,6.85,6.85,0,0,1-.41,2.41A5,5,0,0,1,183.09,18a5.2,5.2,0,0,1-1.84,1.16,6.41,6.41,0,0,1-2.37.41h-4.67V10.37H172.8Zm4.84,2.28v6.87h2.27a3.45,3.45,0,0,0,2.55-.9,3.46,3.46,0,0,0,.91-2.57,3.31,3.31,0,0,0-.91-2.54,3.52,3.52,0,0,0-2.55-.86Z"/>
    <path d="M193.74,19.9a8,8,0,0,1-2.2-.29,4.87,4.87,0,0,1-1.75-.87,3.93,3.93,0,0,1-1.15-1.51,5.37,5.37,0,0,1-.41-2.18v-7h2.28v7a2.74,2.74,0,0,0,.23,1.22,1.93,1.93,0,0,0,.66.78,2.73,2.73,0,0,0,1,.42,6.06,6.06,0,0,0,1.33.13,6,6,0,0,0,1.32-.13,2.73,2.73,0,0,0,1-.42,2,2,0,0,0,.67-.78,2.89,2.89,0,0,0,.23-1.22v-7h2.28v7a5.37,5.37,0,0,1-.41,2.18,4.13,4.13,0,0,1-1.15,1.51,5,5,0,0,1-1.75.87,8,8,0,0,1-2.2.29Z"/>
    <path d="M214.3,18.26a6.57,6.57,0,0,1-2.17,1.23,8,8,0,0,1-5.06,0,6.71,6.71,0,0,1-2.16-1.2,5.68,5.68,0,0,1-1.5-1.92,5.75,5.75,0,0,1-.57-2.6,5.71,5.71,0,0,1,.58-2.59,5.89,5.89,0,0,1,1.52-1.9,7,7,0,0,1,2.17-1.17,8.15,8.15,0,0,1,4.95,0,6.88,6.88,0,0,1,2.15,1.07l-1.53,1.77a4.9,4.9,0,0,0-1.44-.68,6.05,6.05,0,0,0-1.63-.23,5.7,5.7,0,0,0-1.61.23,4.6,4.6,0,0,0-1.4.7,3.41,3.41,0,0,0-1,1.18,3.77,3.77,0,0,0-.37,1.7,3.59,3.59,0,0,0,.38,1.68,3.51,3.51,0,0,0,1,1.17,4.41,4.41,0,0,0,1.41.69,5.44,5.44,0,0,0,1.6.24,5.25,5.25,0,0,0,1.8-.32,4.68,4.68,0,0,0,1.54-.92Z"/>
    <path d="M223.16,10.37v9.17h-2.27V10.37h-4.16V8.09h10.75v2.28Z"/>
    <path d="M231,19.54V8.09h2.26V19.54Z"/>
    <path d="M251,13.7a5.76,5.76,0,0,1-.57,2.61,6.11,6.11,0,0,1-1.52,2,6.7,6.7,0,0,1-2.17,1.22,7.82,7.82,0,0,1-2.54.42,7.92,7.92,0,0,1-2.52-.41,6.71,6.71,0,0,1-2.16-1.2,5.66,5.66,0,0,1-2.07-4.52,5.7,5.7,0,0,1,.57-2.59,6.05,6.05,0,0,1,1.53-1.9,7,7,0,0,1,2.17-1.17,8.19,8.19,0,0,1,2.51-.4,8.58,8.58,0,0,1,2.51.38,6.5,6.5,0,0,1,2.17,1.13,5.63,5.63,0,0,1,1.52,1.88A5.69,5.69,0,0,1,251,13.7Zm-2.41,0a3.41,3.41,0,0,0-.37-1.65,3.36,3.36,0,0,0-1-1.15,4.11,4.11,0,0,0-1.4-.66,6.09,6.09,0,0,0-1.59-.21,5.94,5.94,0,0,0-1.63.22,3.88,3.88,0,0,0-1.38.68,3.51,3.51,0,0,0-1,1.17,3.6,3.6,0,0,0-.37,1.69,3.59,3.59,0,0,0,.37,1.68,3.43,3.43,0,0,0,1,1.17,4,4,0,0,0,1.4.68,5.81,5.81,0,0,0,1.62.22,5.08,5.08,0,0,0,1.59-.25,4.59,4.59,0,0,0,1.38-.74,3.57,3.57,0,0,0,1-1.21A3.45,3.45,0,0,0,248.61,13.73Z"/>
    <path d="M256.62,8.09l6.92,8v-8h2.27V19.54h-2.27l-6.37-7.45v7.45h-2.28V9.79l-1.13-1.7Z"/>
    <path d="M79.68,33V28.62h.5l1.6,2.4,1.6-2.4h.51V33h-.5V29.46l-1.6,2.35h0l-1.61-2.35V33Z"/>
    <path d="M87,33l2-4.42h.47l2,4.42H91l-.52-1.16H88L87.52,33Zm1.23-1.6h2l-1-2.24Z"/>
    <path d="M94.61,33V28.62h1.64a1.82,1.82,0,0,1,1.2.38,1.41,1.41,0,0,1,0,2.09,2,2,0,0,1-1.23.37H95.1V33Zm.49-2h1.09a1.39,1.39,0,0,0,.87-.26.88.88,0,0,0,.33-.72.83.83,0,0,0-.31-.7,1.36,1.36,0,0,0-.87-.25H95.1Z"/>
    <path d="M101.06,33V28.62h.49v2.62l2.53-2.62h.64l-1.89,1.92,2,2.47h-.62l-1.69-2.12-.94.95V33Z"/>
    <path d="M107.83,33V28.62H111v.45h-2.67v1.5h2.39V31h-2.39v1.53H111V33Z"/>
    <path d="M115.45,33V29.07H114v-.45h3.45v.45H116V33Z"/>
    <path d="M120.62,33V28.62h.5v3.65l2.62-3.65h.47V33h-.49V29.37L121.1,33Z"/>
    <path d="M127.71,33V28.62h.5v1.95h2.53V28.62h.5V33h-.5V31h-2.53v2Z"/>
    <path d="M134.74,33V28.62h2.81v.45h-2.31V33Z"/>
    <path d="M144.35,32.42a2.27,2.27,0,0,1-3.22,0,2.35,2.35,0,0,1,0-3.21,2.29,2.29,0,0,1,3.22,0,2.28,2.28,0,0,1,.62,1.61A2.24,2.24,0,0,1,144.35,32.42Zm-2.84-.32a1.72,1.72,0,0,0,2.47,0,1.81,1.81,0,0,0,.49-1.29,1.85,1.85,0,0,0-.49-1.29,1.72,1.72,0,0,0-2.48,0,1.84,1.84,0,0,0-.48,1.29A1.8,1.8,0,0,0,141.51,32.1Z"/>
    <path d="M148.29,33V28.62h1.87a1.54,1.54,0,0,1,1.15.39,1,1,0,0,1,.28.72,1,1,0,0,1-.7,1c.63.19,1,.55,1,1.08a1,1,0,0,1-.44.87,1.86,1.86,0,0,1-1.16.32Zm.49-2.43h1.3a1.17,1.17,0,0,0,.73-.21.68.68,0,0,0,.28-.59.62.62,0,0,0-.26-.52,1.13,1.13,0,0,0-.71-.19h-1.34Zm0,2h1.47a1.3,1.3,0,0,0,.79-.21.67.67,0,0,0,.29-.59.65.65,0,0,0-.29-.56,1.61,1.61,0,0,0-.87-.19h-1.39Z"/>
    <path d="M158.73,32.42a2.27,2.27,0,0,1-3.22,0,2.22,2.22,0,0,1-.62-1.6,2.27,2.27,0,0,1,.63-1.61,2.29,2.29,0,0,1,3.22,0,2.25,2.25,0,0,1,.63,1.61A2.21,2.21,0,0,1,158.73,32.42Zm-2.84-.32a1.6,1.6,0,0,0,1.24.53,1.62,1.62,0,0,0,1.24-.52,1.84,1.84,0,0,0,.48-1.29,1.81,1.81,0,0,0-.49-1.29,1.63,1.63,0,0,0-1.24-.53,1.6,1.6,0,0,0-1.23.53,1.93,1.93,0,0,0,0,2.57Z"/>
    <path d="M162.67,33V28.62h3.18v.45h-2.68v1.5h2.4V31h-2.4v1.53h2.71V33Z"/>
    <path d="M172.9,33l2-4.42h.46l2,4.42h-.53l-.51-1.16h-2.4L173.41,33Zm1.23-1.6h2l-1-2.24Z"/>
    <path d="M180.5,33V28.62h2.8v.45H181V33Z"/>
    <path d="M186.45,33V28.62h3.18v.45H187v1.5h2.4V31H187v1.53h2.71V33Z"/>
    <path d="M192.92,33V28.62h.49v1.95H196V28.62h.5V33H196V31h-2.54v2Z"/>
    <path d="M201.11,33V29.07h-1.48v-.45h3.46v.45h-1.48V33Z"/>
    <path d="M208.28,33.09a2.06,2.06,0,0,1-1.57-.66,2.22,2.22,0,0,1-.63-1.61,2.25,2.25,0,0,1,.63-1.61,2.12,2.12,0,0,1,1.59-.66,2.22,2.22,0,0,1,.94.18,2.56,2.56,0,0,1,.76.53l-.32.35a2,2,0,0,0-1.39-.61,1.58,1.58,0,0,0-1.21.53,1.81,1.81,0,0,0-.49,1.29,1.85,1.85,0,0,0,.49,1.29,1.59,1.59,0,0,0,1.21.52,1.81,1.81,0,0,0,.76-.15,2.75,2.75,0,0,0,.66-.48l.33.34a2.64,2.64,0,0,1-.78.56A2.26,2.26,0,0,1,208.28,33.09Z"/>
    <path d="M214.33,33V29.07h-1.48v-.45h3.45v.45h-1.47V33Z"/>
    <path d="M219.49,33V28.62h1.87a1.54,1.54,0,0,1,1.15.39,1,1,0,0,1,.28.72,1,1,0,0,1-.69,1c.62.19.94.55.94,1.08a1,1,0,0,1-.44.87,1.86,1.86,0,0,1-1.16.32Zm.49-2.43h1.3a1.17,1.17,0,0,0,.73-.21.68.68,0,0,0,.28-.59.64.64,0,0,0-.25-.52,1.16,1.16,0,0,0-.72-.19H220Zm0,2h1.48a1.34,1.34,0,0,0,.79-.21.7.7,0,0,0,.29-.59.63.63,0,0,0-.3-.56,1.61,1.61,0,0,0-.87-.19H220Z"/>
    <path d="M229.93,32.42a2.27,2.27,0,0,1-3.22,0,2.37,2.37,0,0,1,0-3.21,2.29,2.29,0,0,1,3.22,0,2.25,2.25,0,0,1,.63,1.61A2.21,2.21,0,0,1,229.93,32.42Zm-2.84-.32a1.73,1.73,0,0,0,2.48,0,1.84,1.84,0,0,0,.48-1.29,1.81,1.81,0,0,0-.49-1.29,1.63,1.63,0,0,0-1.24-.53,1.6,1.6,0,0,0-1.23.53,1.81,1.81,0,0,0-.49,1.29A1.84,1.84,0,0,0,227.09,32.1Z"/>
    <polygon class="cls-1" points="0 0 0 33.7 33.7 33.7 33.7 8.54 25.16 0 0 0"/>
    <polygon class="cls-2" points="33.7 8.54 25.16 0 25.16 8.54 33.7 8.54"/>
    <path class="cls-3"
          d="M21.33,7.43c.62-2.63-4,.65-4.62,1.25C7,17.6,6.81,27.28,6.81,27.28h10.3c.24-3.09-2.15-4.78-3.18-5.53s-2.06-1.64-1.78-1.87,1.36,0,1.36,0c7,1.26,13.38,7.4,13.38,7.4S19.93,13.31,21.33,7.43Z"/>
</svg>