<svg width="127" height="127" viewBox="0 0 127 127" fill="none" xmlns="http://www.w3.org/2000/svg">
    <path fill-rule="evenodd" clip-rule="evenodd" d="M85.3481 12.8811L85.3354 19.4134C88.4035 19.3643 91.8554 19.2931 94.9044 19.4162C97.7159 19.5296 99.9332 21.1717 100.953 22.8621C102.459 25.3581 102.028 28.1588 102.028 31.3572C102.028 56.8349 101.908 82.5357 102.028 107.99C102.041 110.872 102.089 113.491 99.8543 115.509C97.8208 117.346 95.8516 117.583 92.3345 117.583C89.1159 117.583 85.8974 117.583 82.6789 117.583H34.8901C31.1687 117.583 29.4647 117.535 27.2004 115.559C24.8296 113.49 24.9518 110.879 24.9518 108.235L24.9519 41.1349C24.9522 37.9578 24.9518 34.7799 24.9518 31.6016C24.9518 28.5052 24.5283 25.361 25.9746 22.9343C27.0247 21.1724 29.2144 19.5537 31.9583 19.4211C35.0656 19.2709 38.5002 19.4133 41.6487 19.4077L41.6471 12.8868C39.3053 12.8973 32.3589 12.7725 30.579 13.0067C24.8391 13.7623 20.0483 17.9397 18.7525 23.6534C18.1445 26.335 18.4381 31.4965 18.4381 34.535L18.438 101.757C18.441 107.963 17.4248 113.804 21.2101 118.618C21.7075 119.25 22.068 119.556 22.5487 120.089C24.2319 121.956 27.3503 123.439 30.0037 123.885C32.943 124.379 37.8283 124.095 41.0012 124.095L85.8566 124.096C94.5071 124.072 99.8076 124.994 105.062 119.497L106.788 117.063C109.343 112.669 108.539 107.411 108.538 102.001L108.544 34.6572C108.544 26.6013 109.666 22.0812 104.134 16.625C99.37 11.926 93.0925 12.9211 85.3481 12.8811Z" fill="black"/>
    <path fill-rule="evenodd" clip-rule="evenodd" d="M62.6502 7.73654C64.7223 7.19383 66.4602 8.56805 66.8675 10.2553C67.3849 12.399 65.9591 14.0583 64.319 14.4709C59.9201 15.5777 58.2005 8.90181 62.6502 7.73654ZM55.2661 11.3979C53.6822 11.5127 51.7859 11.4201 50.1677 11.42C45.2239 11.4195 45.8041 10.8083 45.8732 17.6685C45.8907 19.4134 45.8665 21.1736 45.8665 22.9241C45.8665 26.8832 45.4139 26.2951 52.9788 26.2951L79.1395 26.2977C81.4433 26.3116 81.1134 25.0433 81.1133 23.0463C81.1133 21.5336 81.2136 13.3029 81.081 12.5514C80.8059 10.992 78.5683 11.42 76.9343 11.42C75.2029 11.42 73.3748 11.4818 71.6635 11.4458C71.9735 8.8853 70.6431 6.67821 69.4153 5.38408C68.1599 4.06065 66.1495 2.85364 63.49 2.84865C58.9009 2.84001 55.0032 6.7235 55.2661 11.3979Z" fill="black"/>
    <path fill-rule="evenodd" clip-rule="evenodd" d="M59.7434 73.3518L92.5583 73.3665L92.5942 68.4254L59.764 68.4233L59.7434 73.3518Z" fill="black"/>
    <path fill-rule="evenodd" clip-rule="evenodd" d="M59.7407 49.1732L92.5813 49.2128C92.6228 48.3345 92.7156 44.9066 92.5143 44.2656L59.7908 44.2678L59.7407 49.1732Z" fill="black"/>
    <path fill-rule="evenodd" clip-rule="evenodd" d="M57.787 62.524C57.5937 62.0941 55.088 60.0985 54.5783 59.6986C53.5823 58.9173 52.773 60.5043 51.4605 62.1049L44.7377 70.2948C43.7001 71.6137 43.7861 72.0264 41.548 69.7963C40.9322 69.1828 40.5426 68.8796 39.9562 68.3356C37.7341 66.2739 37.9356 66.0461 36.7035 67.5155C34.234 70.4607 33.282 69.6989 36.3236 72.3357L43.3249 78.7803C44.3694 79.8951 44.5839 79.1016 47.1063 75.9588L57.2347 63.6024C57.4946 63.2988 57.7707 63.0829 57.787 62.524Z" fill="black"/>
    <path fill-rule="evenodd" clip-rule="evenodd" d="M59.7444 97.4623L92.5937 97.5252L92.5959 92.5806L59.739 92.5819L59.7444 97.4623Z" fill="black"/>
    <path fill-rule="evenodd" clip-rule="evenodd" d="M37.7013 90.7533C37.2495 90.9964 35.3168 93.1455 34.7416 93.7858C33.8691 94.7571 35.0937 95.2935 36.051 96.198L43.143 102.793C44.4739 104.027 44.2761 103.453 46.207 101.216C46.7026 100.642 47.0331 100.168 47.5276 99.6026L54.3474 91.269C55.2454 90.1301 56.151 89.116 57.0511 87.9855C58.2407 86.4913 58.091 86.7155 55.8042 84.877C54.2127 83.5976 53.986 83.1097 53.2604 84.0725L49.7904 88.3012C47.9795 90.5665 46.1752 92.6347 44.4001 94.8906C43.284 96.3089 42.9552 95.1384 41.9265 94.2336L39.4663 92.0454C38.9887 91.5633 38.4604 90.8056 37.7013 90.7533Z" fill="black"/>
    <path fill-rule="evenodd" clip-rule="evenodd" d="M37.9457 42.4378C37.1799 42.5138 36.4275 43.6202 36.0125 44.0914C34.3275 46.0048 33.6881 45.8646 35.5093 47.3629L39.0988 50.7357C39.5062 51.1565 39.8819 51.4229 40.3319 51.8295C44.1163 55.2495 43.7857 55.8433 45.1475 54.2048L57.0293 39.6853C58.0792 38.305 58.5073 38.7129 55.2253 36.0797C53.3999 34.6153 53.941 34.933 50.2769 39.4108L44.7093 46.1897C43.8583 47.2634 43.7702 47.9354 41.9813 46.0182L37.9457 42.4378Z" fill="black"/>
</svg>
