<svg fill="#858b8f" xmlns="http://www.w3.org/2000/svg" viewBox="0 0 194.77 142.13">
    <path
            d="M176.34,22.83c-.07,0-.69,0-.77,0-.33,0-.82,0-1.29,0-3-4.49-12.37-16.54-29.08-21.11-14.52-4-30.61-1.11-47.81,8.4C80.19.63,64.1-2.24,49.58,1.74,32.83,6.32,23.48,18.4,20.48,22.88c-.67,0-1.29-.06-1.77-.06h-.08a19,19,0,0,0-.4,38,14.61,14.61,0,0,1,9.69,7.28c9.06,15.81-1.48,49.05-1.58,49.39a3.37,3.37,0,0,0,3.21,4.41H165.22a3.37,3.37,0,0,0,3.21-4.41c-.1-.34-10.65-33.55-1.58-49.39a14.59,14.59,0,0,1,9.69-7.28,18.84,18.84,0,0,0,18.23-19C194.77,31.35,186.41,22.83,176.34,22.83Zm-33-14.6c12,3.24,19.69,11.13,23.47,15.9a32.43,32.43,0,0,0-16.56,10.7c-9.28,11.25-11.95,29-7.95,52.89H100.76V15.93C116.29,7.36,130.58,4.78,143.32,8.23Zm-91.87,0c12.72-3.47,27-.87,42.56,7.7V87.72H52.49c4-23.86,1.33-41.64-8-52.89A32.29,32.29,0,0,0,28,24.15C31.73,19.39,39.46,11.48,51.45,8.23ZM176.13,54.05a3.61,3.61,0,0,0-.73.07A21.36,21.36,0,0,0,161,64.71c-8.46,14.77-3,40.17-.26,50.41H34.05c2.73-10.24,8.19-35.64-.27-50.41A21.39,21.39,0,0,0,19.37,54.12a3.71,3.71,0,0,0-.74-.07A12.07,12.07,0,0,1,6.76,41.81,12.2,12.2,0,0,1,19.19,29.57a27,27,0,0,1,20.13,9.56c8.46,10.24,10.41,27.51,5.8,51.33a3.39,3.39,0,0,0,.72,2.79,3.36,3.36,0,0,0,2.6,1.23h97.88a3.38,3.38,0,0,0,3.32-4c-4.6-23.82-2.65-41.09,5.8-51.33,7.43-9,17.86-9.55,20.61-9.55h.08a12.24,12.24,0,0,1,0,24.47Z"/>
    <path
            d="M151.19,128.6a3.37,3.37,0,0,0-3.38,3.37v3.4h-6.94V132a3.38,3.38,0,0,0-6.76,0v6.78a3.38,3.38,0,0,0,3.38,3.38h13.7a3.37,3.37,0,0,0,3.37-3.38V132A3.37,3.37,0,0,0,151.19,128.6Z"/>
    <path
            d="M56.6,128.6A3.37,3.37,0,0,0,53.22,132v3.4H46.28V132a3.38,3.38,0,0,0-6.76,0v6.78a3.38,3.38,0,0,0,3.38,3.38H56.6A3.38,3.38,0,0,0,60,138.75V132A3.38,3.38,0,0,0,56.6,128.6Z"/>
</svg>