<svg width="141" height="132" viewBox="0 0 141 132" fill="none" xmlns="http://www.w3.org/2000/svg">
    <g clip-path="url(#clip0_24_115)">
        <path fill-rule="evenodd" clip-rule="evenodd" d="M11.7371 115.312C11.7371 108.504 14.5396 109.278 20.6434 107.494C22.9544 106.818 25.1633 106.254 27.3507 105.692C31.6622 104.585 59.2122 96.8271 61.0309 96.8271C62.9967 96.8271 64.7431 97.7619 65.8126 98.794C67.4454 100.369 67.5078 101.15 68.0729 103.576C63.504 104.64 58.707 105.595 54.0133 106.534C41.4736 109.042 23.8295 112.495 11.737 115.312L11.7371 115.312ZM0.000488281 119.713V129.103C0.000488281 130.358 0.904975 131.45 2.05451 131.45C5.01693 131.45 8.35742 130.99 10.9436 130.656L28.4872 128.835C29.9146 128.715 31.6832 128.674 33.0453 128.405C33.5463 128.306 34.3793 127.979 34.6913 127.704C36.2231 126.352 35.3432 123.885 33.4231 123.541C32.1898 123.32 8.22669 126.168 4.69516 126.462V121.767C9.84042 120.569 15.124 119.527 20.4664 118.467L52.0573 111.914C57.5332 110.818 62.8181 109.788 68.0729 108.564C68.0729 110.813 68.0857 113.066 68.0708 115.314C68.0544 117.785 67.9633 119.713 70.4202 119.713C72.877 119.713 72.7859 117.785 72.7695 115.314C72.7546 113.066 72.7674 110.813 72.7674 108.564C77.9347 109.767 83.2062 110.798 88.5386 111.865C93.7038 112.898 98.9728 114.082 104.333 115.142C109.772 116.218 114.721 117.348 120.129 118.418C125.618 119.504 130.901 120.546 136.145 121.767V126.462C130.785 126.016 125.126 125.181 119.706 124.71C114.12 124.224 108.461 123.499 102.962 122.968C100.314 122.713 79.8201 120.077 78.4319 120.975C76.4755 122.24 78.6557 126.755 74.8215 126.755H66.019C62.2718 126.755 64.1079 122.334 62.5784 121.099C61.402 120.149 56.566 121.043 54.601 121.206C51.9757 121.424 49.1784 121.883 46.3703 122.071C44.0172 122.229 39.9049 122.307 39.9049 124.702C39.9049 128.341 43.6225 127.253 46.0584 127.041C49.3836 126.752 55.5267 125.875 58.3901 125.875C58.9869 125.875 60.1303 131.45 65.1386 131.45H75.7016C80.6835 131.45 81.8868 125.875 82.4501 125.875C85.091 125.875 86.9877 126.304 89.4818 126.472C91.6012 126.615 94.1316 126.911 96.3644 127.218C104.503 128.34 116.197 128.952 124.578 130.107L139.079 131.45C140.03 131.45 140.84 130.175 140.84 129.103V119.713C140.84 116.89 137.229 117.058 133.976 116.308C125.206 114.286 116.303 112.875 107.742 110.853C97.0202 108.319 83.6453 106.11 72.7673 103.576C73.2683 101.426 73.3299 100.543 74.7343 99.0872C78.1086 95.5903 81.3109 96.9673 85.3239 98.0611L114.197 105.865C119.976 107.285 128.516 111.182 128.516 106.803C128.516 105.145 128.407 104.624 125.819 103.925L84.2131 92.7166C79.6123 91.4833 75.3315 91.77 71.6777 95.1504C70.864 95.9034 71.2353 95.9363 70.4202 96.5336C69.2955 95.7095 68.0042 92.8721 62.249 92.0678C58.9428 91.6056 45.6387 95.7282 41.6029 96.7643L21.2959 102.278C15.0592 104.05 6.8283 104.553 7.04865 113.851C7.08465 115.376 7.36511 115.994 6.40341 116.434C6.324 116.47 4.01252 116.885 3.68925 116.947C1.77105 117.314 0.000488281 117.575 0.000488281 119.713L0.000488281 119.713Z" fill="black"/>
        <path fill-rule="evenodd" clip-rule="evenodd" d="M117.367 46.9464C117.367 43.9821 122.061 43.9821 122.061 46.9464C122.061 49.9107 117.367 49.9107 117.367 46.9464ZM113.259 23.1799V23.7667C112.198 23.855 104.126 27.5157 102.445 28.2096C97.8531 30.1047 71.1469 41.8166 70.4205 41.8166C69.214 41.8166 29.3513 23.9139 27.5818 23.7668V23.18C28.6321 23.0924 35.0672 20.1549 36.5518 19.5331C38.6009 18.6752 44.5998 16.6165 44.5998 14.9644C44.5998 9.82623 39.8203 12.7538 36.099 14.3857L23.7755 19.6672C22.0335 20.4309 18.7793 21.2078 18.7793 23.4734C18.7793 25.6801 21.5082 26.2739 23.1724 27.0026L39.9053 34.0363V59.8569C39.9053 68.6649 38.6558 67.2132 47.3413 69.7321C63.2685 74.3516 83.1661 73.4276 98.7553 68.2395C100.001 67.8249 100.936 67.2479 100.936 65.7251V41.3717C100.936 39.4299 96.9714 38.6545 96.3097 41.1469L96.2409 63.9645C84.298 66.7469 82.8711 67.779 68.6599 67.779C64.1978 67.779 59.8919 67.2525 56.042 66.6063C50.5994 65.6928 49.3011 65.0598 44.5998 63.9645V36.0902L57.298 41.5836C59.1529 42.3786 69.2176 46.9465 70.4204 46.9465C71.593 46.9465 90.9912 38.4028 93.8519 37.222C97.7101 35.6295 101.584 33.8933 105.549 32.1943L114.181 28.503C115.328 28.0289 116.099 27.5831 117.367 27.2877V40.198C114.114 41.9191 112.672 43.2522 112.672 47.5333C112.672 55.4415 126.756 57.2731 126.756 46.3597C126.756 43.1175 124.503 41.49 122.062 40.198L122.045 23.1967C121.823 21.5136 120.395 21.0831 118.919 20.4541C115.78 19.1161 71.6437 9.91821e-05 70.7141 9.91821e-05C68.6135 9.91821e-05 61.5592 3.57924 58.9367 4.65396L50.5061 8.25331C49.4995 8.65439 48.5818 8.98646 48.1304 10.0131C47.5634 11.3027 48.4423 14.1154 51.4998 13.0889L68.3749 5.87462C71.1173 4.63986 70.6418 5.15207 73.8999 6.49684L101.824 18.477C103.687 19.2939 105.52 20.0238 107.383 20.8406C108.487 21.325 112.167 23.0889 113.259 23.1799H113.259Z" fill="black"/>
        <path fill-rule="evenodd" clip-rule="evenodd" d="M96.2407 89.1983C96.2407 90.6176 97.1687 91.5455 98.588 91.5455C100.438 91.5455 103.587 87.2761 105.997 84.8704L120.085 69.9105C121.019 68.9814 121.343 68.3369 122.277 67.4079L134.005 55.0755C136.327 52.2986 136.145 53.2083 136.145 51.0542C136.145 49.4986 134.318 49.2937 133.211 49.2937C132.322 49.2937 127.839 54.5368 126.095 56.2609L98.1707 86.1399C97.3844 87.1511 96.2408 87.6635 96.2408 89.1983H96.2407Z" fill="black"/>
        <path fill-rule="evenodd" clip-rule="evenodd" d="M4.69531 51.0542C4.69531 53.8114 5.18551 52.8218 6.74914 54.8686L32.2088 81.9305C33.1053 82.8364 33.4539 83.4964 34.4011 84.4329C36.1486 86.1606 40.7799 91.5455 41.6656 91.5455C44.0604 91.5455 44.5998 91.0061 44.5998 88.6113C44.5998 87.7682 40.8815 84.1576 40.2718 83.5501L12.5382 54.0678C9.35368 50.7592 9.42939 49.2938 6.45578 49.2938C5.74923 49.2938 4.69541 50.3478 4.69541 51.0543L4.69531 51.0542Z" fill="black"/>
        <path fill-rule="evenodd" clip-rule="evenodd" d="M112.672 90.9587C112.672 93.3535 113.211 93.8928 115.606 93.8928C116.566 93.8928 124.789 85.1503 126.096 83.8435C127.057 82.8824 129.103 81.4298 129.103 79.8089C129.103 78.3895 128.175 77.4615 126.756 77.4615C125.021 77.4615 120.709 82.4814 119.347 83.8435C118.371 84.8196 112.672 90.0891 112.672 90.9587Z" fill="black"/>
        <path fill-rule="evenodd" clip-rule="evenodd" d="M11.7373 79.8089C11.7373 81.4298 13.7839 82.8824 14.7448 83.8435L21.7868 90.8853C22.7478 91.8463 24.2004 93.8928 25.8213 93.8928C27.2406 93.8928 28.1686 92.9648 28.1686 91.5456C28.1686 89.8094 23.0227 85.3727 21.6403 83.9901C20.2576 82.6076 15.8209 77.4616 14.0848 77.4616C12.6654 77.4616 11.7374 78.3896 11.7374 79.809L11.7373 79.8089Z" fill="black"/>
        <path fill-rule="evenodd" clip-rule="evenodd" d="M79.8096 83.9168C79.8096 86.3116 80.349 86.8509 82.7438 86.8509C83.3387 86.8509 89.1989 81.5994 89.1989 79.809C89.1989 78.3896 88.2709 77.4616 86.8516 77.4616C85.0612 77.4616 79.8097 83.322 79.8097 83.9169L79.8096 83.9168Z" fill="black"/>
        <path fill-rule="evenodd" clip-rule="evenodd" d="M51.6416 79.8089C51.6416 81.4196 57.0729 86.8508 58.6836 86.8508C60.1029 86.8508 61.0308 85.9228 61.0308 84.5035C61.0308 82.8929 55.5995 77.4615 53.9889 77.4615C52.5696 77.4615 51.6416 78.3895 51.6416 79.8089Z" fill="black"/>
        <path fill-rule="evenodd" clip-rule="evenodd" d="M68.0728 79.8089C68.0728 83.3351 67.3515 86.8508 70.4201 86.8508C73.4887 86.8508 72.7673 83.335 72.7673 79.8089C72.7673 76.6594 68.0728 76.6594 68.0728 79.8089Z" fill="black"/>
    </g>
    <defs>
        <clipPath id="clip0_24_115">
            <rect width="140.84" height="131.45" fill="white"/>
        </clipPath>
    </defs>
</svg>
