<svg width="117" height="124" viewBox="0 0 117 124" fill="none" xmlns="http://www.w3.org/2000/svg">
    <g clip-path="url(#clip0_45_43)">
        <path fill-rule="evenodd" clip-rule="evenodd" d="M39.1758 31.2997C43.29 36.5699 47.3852 46.4101 50.4255 52.9287C53.4369 59.3857 59.2076 75.575 64.0851 72.8941C70.9311 69.1309 50.6645 49.2731 59.8805 47.2466C64.2185 46.2929 66.2265 54.0514 67.8697 57.6048C69.4098 60.9355 72.4625 71.3746 77.0285 66.1003C80.6841 62.2869 71.4883 53.3319 72.0904 49.2784C72.4429 46.9048 72.8126 47.5739 73.6019 46.9396C79.4222 43.3295 81.5916 56.9942 84.3248 60.3226C86.864 63.4141 91.5861 62.0557 90.2706 56.9877C89.1266 52.5791 86.0984 52.2011 87.8352 46.7757C93.6419 45.1273 93.9668 48.2948 99.8216 60.1441C103.072 66.7214 104.701 71.9588 106.619 79.6619C112.859 104.721 112.998 101.229 91.9709 110.652C68.3494 121.239 78.2323 118.454 58.6645 103.979C53.2578 99.9789 48.7351 96.8297 43.3812 92.6897C40.8291 90.7165 38.8049 89.1286 36.1848 86.9935C33.7939 85.0449 29.279 83.5262 31.809 79.0643C35.5119 74.4984 42.5699 84.3091 50.711 89.3472C56.7458 93.0819 58.156 88.1779 55.9208 83.4881L35.3439 40.6994C32.9145 35.6859 31.2827 30.8708 39.1758 31.2996V31.2997ZM44.1573 75.4794C40.7211 73.2894 37.027 69.5877 31.14 71.4882C26.8541 72.8715 23.3029 77.0739 24.1785 82.7937C25.0215 88.3017 37.2099 96.684 42.7386 100.788C49.6408 105.913 57.4644 111.172 63.4421 116.531C73.0539 125.149 73.124 126.402 88.3675 119.806C119.06 106.525 120.441 108.622 113.695 79.5508C111.939 71.9829 102.954 46.2731 97.2303 41.7344C92.9356 38.3286 87.0093 38.6472 83.4564 42.3954C73.6961 37.9465 76.358 38.3671 67.3043 42.6103C61.811 40.0218 59.1048 39.8385 53.4855 42.6965C49.0259 36.9776 48.5917 28.5181 42.4363 25.5763C34.2865 21.681 25.3101 27.9015 26.3545 36.4749C27.2755 44.0362 41.3218 66.2227 44.1574 75.4795L44.1573 75.4794Z" fill="black"/>
        <path fill-rule="evenodd" clip-rule="evenodd" d="M34.2622 0.348491C31.1548 1.80499 32.1789 5.06459 32.4142 8.20674C32.666 11.5665 32.9121 16.3256 37.827 13.9519C41.1704 12.3371 40.2033 -2.43656 34.2621 0.348491H34.2622Z" fill="black"/>
        <path fill-rule="evenodd" clip-rule="evenodd" d="M52.2178 19.0707C56.4285 21.8369 57.1683 20.4445 59.7746 17.1812C62.107 14.2604 64.8581 13.4576 63.063 8.55359C58.0049 7.41449 57.9344 8.64266 55.6125 11.6414C53.7547 14.0403 51.3426 14.8136 52.2178 19.0707Z" fill="black"/>
        <path fill-rule="evenodd" clip-rule="evenodd" d="M9.97265 12.8116C6.05685 16.7445 17.1767 25.1974 20.4178 22.1961C23.8294 19.0373 19.1396 16.3492 17.8332 15.1214C15.7458 13.159 13.105 9.66542 9.97265 12.8116Z" fill="black"/>
        <path fill-rule="evenodd" clip-rule="evenodd" d="M6.81966 35.4662C-2.7903 36.1157 -2.4594 42.9503 9.18777 42.0476C12.5774 41.7847 16.1787 41.4392 15.0074 37.4817C14.0551 34.2652 10.3704 35.2263 6.81976 35.4662H6.81966Z" fill="black"/>
    </g>
    <defs>
        <clipPath id="clip0_45_43">
            <rect width="117" height="124" fill="white"/>
        </clipPath>
    </defs>
</svg>
