<svg width="131" height="121" viewBox="0 0 131 121" fill="none" xmlns="http://www.w3.org/2000/svg">
    <g clip-path="url(#clip0_45_154)">
        <path fill-rule="evenodd" clip-rule="evenodd" d="M73.4215 89.3569C74.264 87.4246 77.1221 83.3936 78.4944 81.392C80.3404 78.6999 81.8589 76.1688 83.6541 73.3779L88.3243 74.4887L82.8782 89.8635C81.2309 89.0878 81.7569 89.1992 80.4877 87.864C77.6814 84.9132 76.3549 88.2702 73.4221 89.3575L73.4215 89.3569ZM47.0274 73.3932C47.9932 74.2692 56.8764 87.9088 57.5464 89.352C54.481 88.3089 53.2053 84.6179 50.3041 88.0698C49.2258 89.3526 49.6187 89.1883 48.1476 89.8176L42.6961 74.6694L47.0274 73.3937V73.3932ZM65.4944 93.4688C62.4507 90.0572 59.2543 83.9913 56.4328 79.9215C54.87 77.6671 53.4868 75.368 51.8897 72.9718C49.5838 69.5117 51.4799 70.5291 51.1165 69.2906C50.9337 68.6678 48.588 67.849 47.8475 67.569C44.375 70.5695 43.8561 70.1459 38.2119 71.0417L16.2736 74.5651C11.9258 75.2523 9.92386 76.2277 7.80402 78.8385C4.9781 82.3183 2.46321 103.095 1.2475 110.418C0.70513 113.684 -0.895258 118.492 0.665843 120.965L3.08907 120.899C4.7402 118.202 8.51391 92.2777 9.45352 86.5982C10.0068 83.2517 10.2633 81.3221 12.8736 79.797C15.2008 78.4379 35.5912 75.552 38.6037 75.2343L46.0605 95.4895C49.3443 95.9262 51.2311 93.1598 52.7726 91.5436C54.0226 92.0168 62.3558 97.6401 63.3762 98.7673C63.7003 103.832 62.3143 117.899 64.2939 120.885C67.2312 121.353 67.5635 120.391 67.5738 117.682L67.618 98.7673C68.5271 97.7427 77.1309 91.8454 78.2746 91.4491C80.2629 93.2422 81.3476 96.0703 84.8895 95.4524C87.7104 91.2941 89.7059 80.1207 92.5798 75.3675C97.0972 75.3855 105.839 77.3385 110.784 78.1311C113.872 78.6262 117.033 78.7501 119.055 80.5001C121.319 82.458 121.172 84.4924 121.776 88.06L126.267 114.738C126.845 118.171 126.299 121.632 130.317 120.848C131.943 118.458 130.23 113.459 129.659 110.079C128.423 102.762 125.955 81.9034 122.996 78.6136C120.745 76.1109 118.804 75.2037 114.342 74.5089L92.4434 70.9996C86.9247 70.1132 86.5864 70.5013 83.085 67.4795L79.5792 69.2573C80.4992 70.6443 80.6328 70.5804 79.6054 72.1956C78.8971 73.3086 78.3062 74.0318 77.5909 75.1481L69.5 87.5889C68.3508 89.3411 66.7505 92.2881 65.4949 93.4671L65.4944 93.4688Z" fill="black"/>
        <path fill-rule="evenodd" clip-rule="evenodd" d="M60.5475 4.58591C78.2898 1.31084 92.2202 14.5012 94.7918 28.8279C98.0002 46.7011 84.8496 60.7216 70.5874 63.2047C43.2095 67.971 25.7814 36.1292 41.9501 15.6982C45.9557 10.6366 51.6856 6.22126 60.5469 4.58591H60.5475ZM31.7159 36.3682C32.7412 47.2731 37.2788 53.9029 42.7991 59.0901C63.7941 78.8164 101.547 63.0344 99.2219 31.0146C97.9539 13.547 82.058 -1.521 62.8932 0.123631C44.0203 1.7426 30.0211 18.3352 31.7159 36.3682Z" fill="black"/>
        <path fill-rule="evenodd" clip-rule="evenodd" d="M63.4426 15.0205V32.2626C63.4426 38.2898 62.8654 36.9476 80.6786 36.947C85.034 36.947 85.9343 32.756 79.4667 32.8139C75.5451 32.8488 71.467 32.9116 67.5563 32.7893C67.5214 27.8194 68.5505 13.6553 66.7487 10.556L64.2267 10.4277C63.2489 12.1433 63.4432 12.6488 63.4432 15.0199L63.4426 15.0205Z" fill="black"/>
    </g>
    <defs>
        <clipPath id="clip0_45_154">
            <rect width="131" height="121" fill="white"/>
        </clipPath>
    </defs>
</svg>
