<svg width="149" height="120" viewBox="0 0 149 120" fill="none" xmlns="http://www.w3.org/2000/svg">
    <g clip-path="url(#clip0_41_7)">
        <path fill-rule="evenodd" clip-rule="evenodd" d="M103.753 115.054L5.68013 115.037L29.7429 58.5716L35.3322 58.5667C37.4394 69.9732 45.1183 67.0319 51.7003 73.4945C51.7829 80.154 42.2202 84.5588 47.2886 92.554C55.9497 106.216 96.425 94.671 103.753 115.054H103.753ZM40.2471 58.4606H87.8732C90.2941 58.9719 95.5081 69.6206 96.848 71.7282C99.9789 76.6523 102.172 80.6356 105.496 85.7399C109.018 85.1722 108.949 84.5329 110.518 81.7744C112.942 77.5156 119.897 67.7655 120.713 64.6624C121.45 65.4329 121.025 64.7927 121.838 66.0293L142.829 114.804L110.141 115.05C106.287 114.236 109.478 104.232 91.8587 98.9177C80.7938 95.5803 52.2631 96.4214 50.9622 88.3457C50.2558 83.9597 64.771 73.0276 49.9623 66.1893C44.9846 63.8907 41.5593 63.795 40.2469 58.4606H40.2471ZM106.587 78.3311L83.7873 39.6546C76.4425 21.6923 90.8945 4.6376 107.952 4.89171C124.123 5.13279 138.113 22.4284 130.402 40.0231L106.587 78.3311ZM0.0983843 118.598C1.83944 120.286 -1.6121 118.271 1.44031 119.557L133.846 119.909C149.974 119.909 151.371 121.532 146.584 111.083C140.958 98.801 135.98 86.2257 130.654 73.9107C124.699 60.1396 123.424 60.8877 127.115 55.3372C129.756 51.3651 134.693 43.7765 136.285 37.908C142.893 13.5617 118.773 -6.32649 96.6242 1.87968C89.4687 4.53071 85.0809 8.86988 81.8163 13.6983C70.1426 30.965 82.0707 45.4891 85.8721 53.6517L27.5591 53.8628C24.368 56.3017 15.0371 80.7828 12.7373 86.0604C10.897 90.2835 -1.20685 115.808 0.0981805 118.598H0.0983843Z" fill="#221F20"/>
        <path fill-rule="evenodd" clip-rule="evenodd" d="M105.495 21.1508C114.786 18.4112 119.207 33.1519 109.858 36.0237C99.69 39.1467 94.2962 24.4524 105.495 21.1508ZM103.601 16.4902C87.651 21.5428 94.2239 44.9315 110.548 41.0008C116.516 39.5637 121.56 32.6698 119.417 24.9181C117.827 19.1638 110.997 14.1472 103.601 16.4902Z" fill="#221F20"/>
    </g>
    <defs>
        <clipPath id="clip0_41_7">
            <rect width="149" height="120" fill="white"/>
        </clipPath>
    </defs>
</svg>
