<svg fill="#858b8f" xmlns="http://www.w3.org/2000/svg" viewBox="-49 141 512 512">
    <path d="M455.5,521.766h-8.534V391.244c9.309-3.139,16.034-11.946,16.034-22.3  c0-12.976-10.557-23.532-23.532-23.532H302.677v-16.548c0-4.142-3.358-7.5-7.5-7.5h-32.581v-18.297  c9.308-3.139,16.032-11.946,16.032-22.3c0-12.976-10.557-23.532-23.532-23.532h-96.193c-12.976,0-23.532,10.557-23.532,23.532  c0,10.354,6.724,19.16,16.032,22.3v18.297h-32.581c-4.142,0-7.5,3.358-7.5,7.5v16.548h-136.79  C-38.443,345.411-49,355.968-49,368.944c0,10.354,6.724,19.16,16.032,22.3v130.523H-41.5c-4.142,0-7.5,3.358-7.5,7.5  c0,4.142,3.358,7.5,7.5,7.5h497c4.142,0,7.5-3.358,7.5-7.5C463,525.125,459.642,521.766,455.5,521.766z M78.742,449.621  c-4.142,0-7.5,3.358-7.5,7.5v16.548H54.178v-16.548c0-4.142-3.358-7.5-7.5-7.5s-7.5,3.358-7.5,7.5v16.548H22.113v-16.548  c0-4.142-3.358-7.5-7.5-7.5s-7.5,3.358-7.5,7.5v16.548h-25.081v-81.193h129.291v81.193H86.242v-16.548  C86.242,452.979,82.884,449.621,78.742,449.621z M126.323,448.589h8.53c4.142,0,7.5-3.358,7.5-7.5s-3.358-7.5-7.5-7.5h-8.53v-25.081  h161.354v25.081H166.923c-4.142,0-7.5,3.358-7.5,7.5s3.358,7.5,7.5,7.5h120.754v25.081H126.323V448.589z M431.966,473.669h-25.08  v-16.548c0-4.142-3.358-7.5-7.5-7.5s-7.5,3.358-7.5,7.5v16.548h-17.063v-16.548c0-4.142-3.358-7.5-7.5-7.5s-7.5,3.358-7.5,7.5  v16.548h-17.064v-16.548c0-4.142-3.358-7.5-7.5-7.5s-7.5,3.358-7.5,7.5v16.548h-25.082v-81.193h129.289L431.966,473.669  L431.966,473.669z M151.404,488.669v33.097h-25.081v-33.097H151.404z M166.404,488.669H199.5v33.097h-33.097v-33.097H166.404z   M214.5,488.669h33.097v33.097H214.5V488.669z M262.597,488.669h25.08v33.097h-25.08V488.669z M302.677,488.669h129.289v33.097  H302.677V488.669z M439.468,360.411c4.705,0,8.532,3.828,8.532,8.532c0,4.705-3.828,8.532-8.532,8.532h-0.001c0,0,0,0-0.001,0  H302.677V360.41h136.791V360.411z M158.903,272.234h96.193c4.705,0,8.532,3.828,8.532,8.532c0,4.705-3.828,8.532-8.532,8.532  h-96.193c-4.705,0-8.532-3.828-8.532-8.532C150.371,276.061,154.199,272.234,158.903,272.234z M166.403,304.298h81.193v17.064  h-81.193L166.403,304.298L166.403,304.298z M126.323,336.363h161.354v17.064h-8.53c-4.142,0-7.5,3.358-7.5,7.5s3.358,7.5,7.5,7.5  h8.53v25.081H126.323v-25.081h120.754c4.142,0,7.5-3.358,7.5-7.5s-3.358-7.5-7.5-7.5H126.323V336.363z M-25.468,360.411h136.791  v17.065H-25.468c-4.705,0-8.532-3.828-8.532-8.532C-34,364.239-30.172,360.411-25.468,360.411z M-17.968,488.669h129.291v33.097  H-17.968V488.669z"></path>
    <path d="M14.613,409.54c-4.142,0-7.5,3.358-7.5,7.5v8.016c0,4.142,3.358,7.5,7.5,7.5s7.5-3.358,7.5-7.5  v-8.016C22.113,412.898,18.755,409.54,14.613,409.54z"></path>
    <path d="M86.242,417.04c0-4.142-3.358-7.5-7.5-7.5s-7.5,3.358-7.5,7.5v8.016c0,4.142,3.358,7.5,7.5,7.5  s7.5-3.358,7.5-7.5V417.04z"></path>
    <path d="M46.677,409.54c-4.142,0-7.5,3.358-7.5,7.5v8.016c0,4.142,3.358,7.5,7.5,7.5s7.5-3.358,7.5-7.5  v-8.016C54.177,412.898,50.819,409.54,46.677,409.54z"></path>
    <path d="M399.386,432.557c4.142,0,7.5-3.358,7.5-7.5v-8.016c0-4.142-3.358-7.5-7.5-7.5s-7.5,3.358-7.5,7.5  v8.016C391.886,429.199,395.244,432.557,399.386,432.557z"></path>
    <path d="M335.259,432.557c4.142,0,7.5-3.358,7.5-7.5v-8.016c0-4.142-3.358-7.5-7.5-7.5s-7.5,3.358-7.5,7.5  v8.016C327.759,429.199,331.117,432.557,335.259,432.557z"></path>
    <path d="M367.323,432.557c4.142,0,7.5-3.358,7.5-7.5v-8.016c0-4.142-3.358-7.5-7.5-7.5s-7.5,3.358-7.5,7.5  v8.016C359.823,429.199,363.181,432.557,367.323,432.557z"></path>
</svg>