<svg width="25" height="25" viewBox="0 0 25 25" fill="none" xmlns="http://www.w3.org/2000/svg">
    <path fill-rule="evenodd" clip-rule="evenodd" d="M0.0196678 13.225C0.388753 19.9576 6.16135 25.3742 13.2567 24.9797C19.9087 24.6098 25.3608 18.8777 24.9813 11.7879C24.6268 5.16339 18.9433 -0.37733 11.7577 0.020139C5.1038 0.388191 -0.370613 6.10554 0.0196539 13.225L0.0196747 13.225L0.0196678 13.225Z" fill="#88D3F0"/>
    <path fill-rule="evenodd" clip-rule="evenodd" d="M11.6429 1.5887C17.8819 1.07349 22.9741 5.88651 23.4109 11.6257C23.8949 17.9844 19.098 22.9598 13.3321 23.4164C10.0236 23.6783 6.93391 22.3152 5.20447 20.6583C4.26448 19.7578 3.55467 18.9877 2.80813 17.5882C0.58244 13.4162 1.49127 8.36816 4.3294 5.2258C5.87373 3.51596 8.23178 1.87036 11.6429 1.58868V1.5887H11.6429Z" fill="#88D3F0"/>
    <path fill-rule="evenodd" clip-rule="evenodd" d="M14.3107 16.9674C14.2413 16.6237 14.2867 13.163 14.2867 12.5031C14.2867 11.7383 14.3497 11.1053 13.9638 10.5564C13.6836 10.1577 13.186 9.78744 12.4817 9.79224C10.5855 9.80516 8.89262 12.7228 9.34396 13.3215C9.72658 13.829 10.3346 12.8536 10.711 12.7262C10.7816 14.1696 10.7168 15.7861 10.7168 17.2489C10.7168 18.0617 10.6548 18.6163 11.074 19.1731C11.3626 19.5564 11.892 19.9109 12.5851 19.8813C14.4487 19.8019 16.1819 16.8657 15.6281 16.3203C15.2839 15.9814 15.0226 16.41 14.3107 16.9674H14.3107L14.3107 16.9674Z" fill="#FEFEFE"/>
    <path fill-rule="evenodd" clip-rule="evenodd" d="M13.8985 7.34452C14.1263 6.22881 13.2883 5.31478 12.4133 5.15424C11.263 4.94318 10.3558 5.7219 10.1845 6.64534C9.73147 9.08843 13.3863 9.85307 13.8985 7.3445V7.34452H13.8985Z" fill="#FEFEFE"/>
</svg>