<svg fill="#858b8f" xmlns="http://www.w3.org/2000/svg" viewBox="0 0 411.2 410.4">
    <path d="M193.6,410.4c-7.09-1-14.22-1.9-21.28-3.12a187.7,187.7,0,0,1-85.15-38.07C54.66,343.62,32.81,310.72,21.3,271a174.81,174.81,0,0,1-7.11-51.27c.25-17.7,0-35.53,2-53.07,4.08-36.1,18.62-68.16,41.85-96C87,35.83,123.59,12.87,168.23,4.72c71.47-13,132.24,7.81,181.15,61.49,25.12,27.57,39.75,60.57,45.56,97.4,3.07,19.45,2.27,39.09,2,58.67a186.81,186.81,0,0,1-30.14,100.4c-19.51,30.37-45.88,53-78.32,68.66a188.6,188.6,0,0,1-68.22,18.39,15.72,15.72,0,0,0-2.67.67ZM27.05,192.81c0,98.29,80.34,178.33,178.94,178.29,98.16,0,177.94-79.8,178.16-178.11.22-98.57-79.64-179-178-179.24C107.59,13.48,27,94,27.05,192.81ZM364.22,300.32c-39.63,53.64-91.48,83-157.46,83.3C141,383.93,88.74,355.47,49,303.4c21.47,44.1,77.19,93,155.11,93.88C275.21,398.07,337.27,355.56,364.22,300.32Z"></path>
    <path d="M205.56,45.89c81.74.62,146.64,66.09,146.7,146.85S286.91,338.88,205.84,339.37C125.36,339.86,59.05,273.91,59,192.82,58.86,112.49,123.39,46.6,205.56,45.89Zm.61,280.58c73.94-.73,133.54-60.66,133.21-133.95C339,118.6,278.77,58.47,205.43,58.9c-74.15.43-134.61,61.23-133.61,134.36C72.84,267.63,132.9,327.19,206.17,326.47Z"></path>
    <path d="M187.51,206.26v11.1H192c11.86,0,23.72,0,35.58,0,3.58,0,6.27,1.48,6.89,5.28.57,3.48-.89,6-4.34,7.06a17,17,0,0,1-4.72.53c-11.06,0-22.12,0-33.18,0h-4.92c0,2.09,0,3.9,0,5.71,0,8.93,0,17.86,0,26.78,0,4.45-2.51,7.3-6.18,7.43s-6.6-2.9-6.64-7.45c-.08-10.64,0-21.28,0-32.47-2.73,0-5.21.07-7.68,0-4.73-.17-7.56-2.64-7.57-6.48s2.77-6.26,7.54-6.4c2.38-.07,4.76,0,7.42,0V206.26c-2.24,0-4.57,0-6.9,0-5.08-.11-8-2.45-8.05-6.4s2.81-6.37,7.86-6.48c2.25,0,4.5,0,7.19,0,.08-1.65.19-3,.19-4.44q0-32.18,0-64.36c0-7.24,2.09-9.43,9.21-9.34,10.38.13,20.89-.59,31.11.83,23.49,3.26,39.08,24.57,37.23,49.4a44.23,44.23,0,0,1-44,40.8C201.25,206.33,194.49,206.26,187.51,206.26Zm0-12.47c9.61-.49,19.19.09,28.3-1.71,12.33-2.44,19.64-11.37,22.44-23.42s-.22-22.74-8.94-31.58c-12-12.15-27.24-8.48-41.8-9Z"></path>
</svg>
