<svg width="144" height="147" viewBox="0 0 144 147" fill="none" xmlns="http://www.w3.org/2000/svg">
    <g clip-path="url(#clip0_41_12)">
        <path fill-rule="evenodd" clip-rule="evenodd" d="M43.2558 48.0299C43.6606 48.3685 54.5496 66.9226 54.9686 68.1443C49.7546 67.4234 33.5041 61.3702 37.4046 53.3293C38.3728 51.3332 41.143 48.9971 43.2559 48.0301L43.2558 48.0299ZM93.0603 50.9203L93.0681 42.4193L97.244 43.0928C96.9821 44.1523 95.7474 46.1993 95.2764 47.1148C94.7118 48.2121 93.9449 50.2611 93.0601 50.9201L93.0603 50.9203ZM62.7393 42.2371L63.0771 42.076C63.4406 41.9498 64.776 41.5948 66.6208 41.6725L66.6099 48.7392C65.4008 47.6444 63.7661 43.9422 62.7392 42.2371H62.7393ZM107.336 25.0367C107.001 23.8857 107.797 23.1868 108.873 23.4658L115.281 27.093C116.538 27.8366 123.35 31.4083 123.621 32.3455C123.929 33.4119 123.113 34.0025 122.16 33.8461L111.51 27.7686C110.615 27.2558 107.573 25.8467 107.336 25.0367H107.336ZM125.591 9.18201C125.266 16.3081 127.701 20.7509 126.729 23.4547C126.283 24.696 123.993 27.0474 122.347 26.9959C121.652 26.9741 118.083 24.7507 117.178 24.237C113.912 22.3844 113.192 22.4575 113.131 20.4777C113.05 17.8736 114.12 16.1024 115.455 15.0323C117.128 13.6915 123.094 9.785 125.591 9.1822V9.18201ZM40.505 19.7811C41.1399 19.2763 43.6842 17.7479 44.4466 17.5928L66.5303 55.9282L66.5691 70.1594C65.1778 70.1171 63.7322 69.88 62.337 69.675C60.0795 69.3437 59.8892 69.6799 58.9795 68.0312C53.37 57.8625 46.3924 46.8152 40.7461 36.6316C39.7387 34.8148 33.7559 24.8092 33.513 23.8422C34.2759 23.2263 36.6342 21.8294 37.5971 21.613L54.0104 50.322C54.7493 51.6102 55.601 53.9736 57.5013 52.9544C59.3969 51.9375 57.5385 49.5335 56.9725 48.5532C56.1319 47.0974 55.4246 45.8574 54.6098 44.465L42.846 24.0193C42.1398 22.7862 40.9452 20.986 40.505 19.7809V19.7811ZM32.7366 10.0989L41.4876 15.0514C40.9791 15.5611 33.5505 19.8569 32.7314 20.0982L32.7368 10.0989H32.7366ZM89.5757 12.7396L89.6451 19.9057L80.4501 20.0508C79.1905 20.4185 78.9367 22.3825 79.979 23.0777C80.7953 23.6224 87.8924 23.2712 89.6199 23.4211L89.6702 30.5057C87.6379 30.9252 81.1461 30.2498 80.0353 30.8952C78.7944 31.6162 79.1642 33.475 80.369 33.9189C81.1757 34.2162 87.6357 33.983 89.6515 34.1142L89.6477 41.2248C84.7634 41.6185 79.5891 40.2872 79.2933 42.7781C78.9458 45.7036 84.8504 44.6161 89.5663 44.7543L89.6451 51.9297C84.6954 52.2663 79.2549 50.877 79.2839 53.7016C79.3131 56.5754 84.6586 55.0072 89.6183 55.4602L89.6344 62.633C87.7001 62.7404 85.6257 62.6606 83.7481 62.659C81.9531 62.6575 79.2001 62.1967 79.2817 64.435C79.3561 66.4797 81.7011 66.0787 83.5097 66.0763C85.3699 66.0736 87.8587 65.9372 89.6426 66.1536L89.5761 70.0236C85.9613 70.5231 73.2039 71.3152 70.1623 70.4264C69.8073 67.938 70.0325 15.616 70.0604 3.58216L88.5121 3.57361C90.0239 3.57379 89.6792 3.53251 89.6504 8.07495L89.6359 9.21111C85.0234 9.60916 79.3151 8.16315 79.2817 10.9539C79.2477 13.7985 84.7504 12.3775 89.5761 12.7394L89.5757 12.7396ZM58.9134 122.917C61.4725 123.161 61.6288 121.252 59.2647 120.297C56.7817 119.293 56.8401 119.405 56.1963 116.775C55.3238 116.395 46.2352 116.593 44.4464 116.593C34.7714 116.594 36.6545 114.257 36.6545 100.049C36.6545 95.4784 37.1914 92.5167 34.1916 90.2649C30.9683 87.8451 26.0213 90.6999 24.8553 87.4411C24.0804 85.2757 26.8988 82.6542 28.8485 79.6182C30.4218 77.1677 32.3163 74.8885 33.8243 72.4379C35.3629 69.9374 34.9036 71.0665 34.91 67.5596C34.9134 65.7427 35.0115 63.4238 35.3491 61.7988C37.6611 63.3938 38.6134 66.1931 47.1541 69.3942C51.8438 71.1521 57.1235 72.4327 62.6378 73.2122C74.8208 74.9345 86.5103 74.3929 98.1077 72.1003C98.5963 71.6573 98.2624 71.5927 98.1813 71.4805C98.0009 71.2307 97.8156 71.3356 97.3886 70.8523C96.5592 69.9129 97.2817 69.4588 96.3932 69.0973L93.0851 69.5112C93.0403 67.2369 93.0653 65.0035 93.0653 62.7819C93.0653 59.5747 92.7239 59.3709 94.0328 56.8533C95.6294 53.7817 97.1711 50.8641 98.7013 47.9266C99.43 46.5282 107.581 30.7562 108.281 29.9978C109.17 30.2974 117.245 34.9846 117.859 35.548C117.59 36.4776 109.442 49.2322 108.268 51.0599C107.046 52.9631 98.8377 65.6877 98.6562 66.6373C99.0168 66.811 101.039 66.5651 102.171 67.0394C103.293 65.9205 111.733 51.4363 113.283 49.6452C114.806 50.2709 116.873 52.5881 117.432 54.5211C119.708 62.3958 104.093 66.6988 103.04 67.306L102.087 68.7154C100.906 68.5787 99.1004 67.5014 98.7539 69.4706C99.0518 70.0671 98.8979 69.9758 99.7808 70.3449C100.052 70.4586 100.273 70.494 100.484 70.6019C100.539 70.6297 100.599 70.6564 100.651 70.6881L101.266 71.2147C104.516 71.0448 112.262 67.4676 115.554 65.0618C116.402 64.4423 118.696 62.0723 119.108 61.9147C120.286 72.6001 118.484 80.6556 113.543 89.3213C109.784 95.9126 103.112 102.157 95.831 105.719C94.1827 106.526 93.1402 106.362 93.1159 108.634C93.0628 113.594 93.864 120.498 93.6201 125.224L62.655 125.28L62.5733 123.774C61.8257 123.459 62.1883 123.739 61.2383 124.279C60.5241 124.685 60.0484 124.67 59.1429 124.707L59.0318 125.266C51.9341 125.571 44.1839 125.28 37.0623 125.28C34.5098 125.28 28.4278 124.913 26.509 125.761C20.565 128.388 21.7898 137.568 28.9534 137.802C32.5292 137.919 36.3205 137.803 39.9206 137.803C49.8561 137.803 110.235 138.133 111.425 137.588C112.841 136.94 112.586 134.755 110.893 134.422C109.464 134.141 37.055 134.376 33.7276 134.376C30.6046 134.376 25.6785 135.145 26.1713 131.168C26.5886 127.8 31.2343 128.703 34.6802 128.703L133.768 128.705C135.602 128.701 137.426 128.675 139.246 128.688C141.114 128.701 142.841 129.142 143.949 127.761C144.316 124.895 142.644 125.27 140.199 125.279C134.709 125.299 98.5952 125.519 97.0447 125.175L96.5668 109.09C101.598 107.457 107.014 102.315 110.544 98.9734C113.926 95.7719 117.8 89.4935 119.897 83.9933C123.564 74.3769 123.959 63.3445 120.638 53.271C120.141 51.766 119.248 50.4209 118.404 49.5232L115.256 46.5369L120.972 37.2675C123.762 37.292 125.243 37.0804 126.452 35.1287C127.962 32.6901 126.684 31.0521 125.869 29.3366C127.32 27.9666 128.686 27.3198 129.697 25.2402C131.975 20.5525 127.496 13.6503 129.385 8.22515C129.856 6.87224 130.476 6.64603 130.151 4.95234C128.432 3.17737 125.919 5.10236 123.885 6.03958C121.874 6.96571 119.673 8.13914 117.803 9.26202C113.769 11.6853 110.109 13.8245 109.746 20.0224C106.741 19.7651 105.017 20.697 104.144 22.813C102.648 26.4384 105.813 26.9626 104.846 28.9653C103.968 30.7833 102.899 32.7211 101.951 34.4484C101.019 36.1459 100.023 38.4569 98.9916 39.8797L93.1114 38.7957C92.8092 34.9504 93.0652 18.3089 93.0652 13.0913C93.0652 -1.26523 94.5086 0.130775 80.1745 0.130775C77.2879 0.130775 69.8581 -0.475672 68.031 0.917792C65.7273 2.67476 66.6135 8.82469 66.6135 12.3746C66.6135 15.9089 66.9569 36.5667 66.4572 38.041L60.7056 38.8363L47.4701 15.7989C46.1282 13.4242 46.0162 13.6073 43.6256 12.2346C40.5282 10.4558 37.6022 8.74995 34.3999 6.91498C33.2872 6.27743 30.7874 4.26825 29.6654 5.90775C29.0037 6.87461 29.3217 18.2234 29.3206 20.2583C29.3179 24.103 29.1942 23.4325 30.8138 26.28L41.4895 44.8645C40.4145 46.0922 35.4051 47.7531 33.5897 53.7899C32.1838 58.4648 31.371 63.5171 31.5142 68.7705C31.5608 70.4822 31.239 70.4117 30.3865 71.6129L25.0281 79.1389C23.0029 82.2184 18.6798 86.4053 23.1282 90.853C24.9982 92.7227 26.6048 92.5809 29.6828 92.5752C33.408 92.5685 33.2414 94.2995 33.2359 97.6599C33.2303 101.032 32.8407 111.858 33.5384 114.33C35.2193 120.286 40.7535 120.019 44.6839 120.019C47.591 120.019 55.1271 119.596 56.9899 120.681C58.203 121.388 58.1881 121.854 58.9126 122.917L58.9134 122.917Z" fill="black"/>
        <path fill-rule="evenodd" clip-rule="evenodd" d="M98.5612 145.917C99.7867 143.21 96.1538 143.475 94.2285 143.476H51.5922C49.7487 143.476 46.1954 142.912 45.5631 144.426C44.2494 147.57 49.0943 146.901 49.9249 146.901H92.5612C94.5001 146.901 97.8621 147.461 98.5612 145.917Z" fill="black"/>
        <path fill-rule="evenodd" clip-rule="evenodd" d="M16.8682 127.761C17.7961 126.002 16.0703 125.271 14.4447 125.267L4.43027 125.28C2.89586 125.278 0.72306 124.947 0.208688 126.197C-0.613908 128.198 1.1504 128.731 2.75118 128.704L12.767 128.704C14.5366 128.707 16.1952 129.036 16.868 127.761H16.8682Z" fill="black"/>
        <path fill-rule="evenodd" clip-rule="evenodd" d="M58.9136 122.917L59.1433 124.707C60.0489 124.671 60.5247 124.685 61.2387 124.279C62.1889 123.739 61.8261 123.459 62.5736 123.774C62.3124 121.668 61.5099 120.367 60.4529 119.108C59.4412 117.904 58.3553 117.156 56.1963 116.775C56.8399 119.405 56.7817 119.294 59.2648 120.297C61.6288 121.252 61.4725 123.161 58.9134 122.917H58.9136Z" fill="black"/>
        <path fill-rule="evenodd" clip-rule="evenodd" d="M96.3938 69.0975C97.2822 69.459 96.5597 69.9131 97.3892 70.8525C97.8162 71.336 98.0015 71.231 98.1819 71.4807C98.2627 71.5929 98.5967 71.6575 98.1083 72.1004L101.266 71.215L100.652 70.6884C100.599 70.6568 100.539 70.6301 100.484 70.6022C100.273 70.4944 100.053 70.4589 99.7814 70.3453C98.8986 69.9762 99.0523 70.0674 98.7544 69.471C99.1009 67.502 100.907 68.5791 102.087 68.7158L103.041 67.3063L102.327 67.4616C102.09 67.3176 102.081 67.8191 102.172 67.0397C101.04 66.5655 99.0175 66.8112 98.6569 66.6377C98.0239 67.0801 98.5186 66.5986 98.0187 67.3123C97.5823 67.9353 97.7639 68.079 97.0001 68.6912L96.5492 68.9982C96.5254 68.9531 96.4406 69.0575 96.3938 69.0977V69.0975Z" fill="black"/>
        <path fill-rule="evenodd" clip-rule="evenodd" d="M121.236 136.839C122.312 134.71 118.999 133.497 118.184 135.342C117.238 137.484 120.238 138.814 121.236 136.839Z" fill="black"/>
    </g>
    <defs>
        <clipPath id="clip0_41_12">
            <rect width="144" height="147" fill="white"/>
        </clipPath>
    </defs>
</svg>
