<svg width="21" height="22" viewBox="0 0 21 22" fill="none" xmlns="http://www.w3.org/2000/svg">
    <g clip-path="url(#clip0_19_513)">
        <path fill-rule="evenodd" clip-rule="evenodd" d="M9.94617 2.61307C11.1667 2.48578 12.6255 2.82342 13.5918 3.19607C16.4895 4.31337 18.5868 7.01073 18.92 10.5634C19.1378 12.8858 18.1404 15.2111 16.6992 16.8222C14.4456 19.3415 10.5348 20.3151 7.31234 18.9724C6.21629 18.5157 5.47716 18.019 4.71945 17.336C2.25647 15.1159 1.23092 11.4397 2.57243 7.94551C3.30874 6.02791 4.7894 4.48404 6.6059 3.51654C7.54999 3.01366 8.66037 2.74722 9.94617 2.61307ZM0.110648 11.7898C0.319408 13.4917 0.550869 14.5162 1.24569 15.8489C1.53776 16.4092 1.88088 16.9794 2.25973 17.4438C2.52486 17.7689 3.16646 18.5201 3.48905 18.7788C3.73267 18.974 3.94621 19.1741 4.21667 19.3765C7.37892 21.7431 11.6712 22.1565 15.212 20.2975C15.8427 19.9664 16.9771 19.2243 17.5097 18.7031C17.6184 18.5967 17.7166 18.4739 17.8187 18.3711C17.9308 18.2583 18.0492 18.1739 18.1426 18.0568C18.5378 17.5613 18.8831 17.1505 19.2569 16.56C20.3298 14.865 21.0015 12.4898 20.7965 10.3877C20.592 8.28935 19.9087 6.25402 18.6427 4.72548C18.4424 4.48361 18.2573 4.24706 18.0603 4.02345C17.9488 3.89669 17.8424 3.83364 17.7331 3.71102C17.5988 3.56024 17.5468 3.49948 17.4139 3.38968C16.4467 2.59144 15.6183 1.96996 14.2122 1.41827C13.0195 0.950284 11.2786 0.573504 9.76229 0.735261C7.58084 0.968004 5.71394 1.59014 4.10338 2.89061C2.54561 4.14857 1.5799 5.3824 0.794604 7.32131C0.336135 8.45328 -0.0621605 10.3788 0.110865 11.7896L0.110648 11.7898Z" fill="black"/>
        <path fill-rule="evenodd" clip-rule="evenodd" d="M10.2797 4.51549C9.7241 4.64638 9.50969 4.98413 9.50795 5.62985L9.50861 9.39505C9.50556 11.9142 9.2098 11.1671 11.3062 13.2653C11.63 13.5893 11.9225 13.8821 12.2463 14.2061C12.5044 14.4644 12.8468 14.9648 13.4664 14.8359C13.9171 14.742 14.3031 14.306 14.2045 13.7419C14.1304 13.3179 13.6104 12.9204 13.3784 12.6882L11.9683 11.277C11.2169 10.525 11.3964 10.9485 11.3964 8.96739C11.3964 8.38091 11.435 5.5892 11.372 5.24568C11.2887 4.79128 10.8294 4.38602 10.2798 4.51538L10.2797 4.51549Z" fill="black"/>
    </g>
    <defs>
        <clipPath id="clip0_19_513">
            <rect width="20.7638" height="20.7638" fill="white" transform="translate(0.0693359 0.697388)"/>
        </clipPath>
    </defs>
</svg>