<svg fill="#858b8f" xmlns="http://www.w3.org/2000/svg" viewBox="-49 141 512 512">
    <path d="M460.497,565.169c2.43-2.444,3.153-6.108,1.835-9.292s-4.42-5.265-7.866-5.277H386.2v-34.133   c-0.009-9.422-7.645-17.057-17.067-17.067H44.867c-9.422,0.009-17.057,7.645-17.067,17.067V550.6h-68.267   c-3.447,0.011-6.549,2.092-7.867,5.276c-1.318,3.185-0.594,6.849,1.836,9.293L-9.867,601.8l-36.631,36.631   c-2.43,2.444-3.153,6.108-1.835,9.292c1.318,3.184,4.42,5.265,7.866,5.277h153.6c4.713,0,8.533-3.82,8.533-8.533V601.8h170.667   v42.667c0,4.713,3.821,8.533,8.533,8.533h153.6c3.447-0.011,6.549-2.092,7.867-5.276c1.318-3.185,0.594-6.849-1.836-9.293   L423.867,601.8L460.497,565.169z M44.867,516.467h324.267l0.008,42.628l-0.008,0.039l0.008,0.039l0.005,25.561H44.867V516.467z    M104.6,635.933H-19.867l28.1-28.1c1.601-1.6,2.5-3.77,2.5-6.033s-0.899-4.433-2.5-6.033l-28.1-28.1H27.8v17.067   c0.009,9.422,7.645,17.057,17.067,17.067H104.6V635.933z M433.867,635.933H309.4V601.8h59.733   c9.422-0.009,17.057-7.645,17.067-17.067v-17.067h47.667l-28.1,28.1c-1.601,1.6-2.5,3.77-2.5,6.033s0.899,4.433,2.5,6.033   L433.867,635.933z"></path>
    <path d="M-46.379,383.779l30.863,29.65l-7.283,41.842c-0.556,3.195,0.747,6.429,3.362,8.346   s6.092,2.185,8.971,0.692L27.8,444.479l38.267,19.829c2.879,1.493,6.355,1.225,8.971-0.692c2.616-1.917,3.919-5.151,3.362-8.346   l-7.283-41.842l30.863-29.65c2.352-2.261,3.21-5.664,2.209-8.77c-1.001-3.105-3.684-5.368-6.913-5.83l-42.75-6.125l-19.096-38.142   c-1.603-2.686-4.501-4.331-7.629-4.331c-3.128,0-6.026,1.645-7.629,4.331L1.075,363.054l-42.75,6.125   c-3.229,0.462-5.913,2.725-6.913,5.83C-49.589,378.115-48.731,381.519-46.379,383.779z M7.912,379.313   c2.769-0.395,5.169-2.123,6.421-4.625L27.8,347.792l13.467,26.896c1.252,2.502,3.651,4.23,6.421,4.625l29.854,4.279l-21.521,20.675   c-2.045,1.967-2.98,4.821-2.496,7.617l5.108,29.354l-26.908-13.946c-2.461-1.278-5.389-1.278-7.85,0l-26.909,13.946l5.108-29.354   c0.484-2.796-0.451-5.65-2.496-7.617l-21.521-20.675L7.912,379.313z"></path>
    <path d="M462.588,375.008c-1.001-3.105-3.684-5.367-6.913-5.829l-42.75-6.125l-19.096-38.142   c-1.603-2.686-4.501-4.331-7.629-4.331c-3.128,0-6.026,1.645-7.629,4.331l-19.096,38.142l-42.75,6.125   c-3.229,0.462-5.913,2.725-6.913,5.83c-1,3.105-0.143,6.509,2.209,8.77l30.863,29.65l-7.283,41.842   c-0.556,3.195,0.747,6.429,3.362,8.346c2.616,1.917,6.092,2.185,8.971,0.692l38.267-19.829l38.267,19.829   c2.879,1.493,6.355,1.225,8.971-0.692c2.616-1.917,3.919-5.151,3.362-8.346l-7.283-41.842l30.862-29.65   C462.732,381.518,463.589,378.114,462.588,375.008z M414.421,404.267c-2.045,1.967-2.98,4.821-2.496,7.617l5.108,29.354   l-26.908-13.946c-2.461-1.278-5.389-1.278-7.85,0l-26.908,13.946l5.108-29.354c0.484-2.796-0.451-5.65-2.496-7.617l-21.521-20.675   l29.854-4.279c2.769-0.395,5.169-2.123,6.421-4.625l13.467-26.896l13.467,26.896c1.252,2.502,3.651,4.23,6.421,4.625l29.854,4.279   L414.421,404.267z"></path>
    <path d="M334.613,228.475c-0.987-3.159-3.712-5.462-6.992-5.908l-78.196-10.671l-34.871-66.333   c-1.62-2.615-4.478-4.206-7.554-4.206s-5.934,1.591-7.554,4.206l-34.871,66.333l-78.196,10.671c-3.28,0.447-6.005,2.751-6.992,5.91   c-0.987,3.16-0.058,6.605,2.384,8.84l56.254,51.475l-13.254,72.542c-0.58,3.173,0.679,6.402,3.253,8.345   c2.575,1.943,6.025,2.267,8.917,0.838L207,335.942l70.059,34.575c2.892,1.429,6.343,1.105,8.918-0.838   c2.575-1.943,3.834-5.172,3.253-8.345l-13.254-72.542l56.254-51.475C334.672,235.081,335.6,231.635,334.613,228.475z    M260.971,279.388c-2.165,1.984-3.16,4.94-2.633,7.829l11.05,60.483l-58.612-28.925c-2.379-1.178-5.171-1.178-7.55,0L144.613,347.7   l11.05-60.483c0.526-2.889-0.468-5.846-2.633-7.829l-46.305-42.37l64.513-8.804c2.733-0.371,5.118-2.042,6.4-4.483L207,167.871   l29.363,55.858c1.282,2.442,3.667,4.112,6.4,4.483l64.513,8.805L260.971,279.388z"></path>
</svg>