<svg width="134" height="140" viewBox="0 0 134 140" fill="none" xmlns="http://www.w3.org/2000/svg">
    <g clip-path="url(#clip0_24_127)">
        <path fill-rule="evenodd" clip-rule="evenodd" d="M5.75749 69.8806C5.28349 66.2087 4.7834 63.0598 6.9864 60.4998C9.21946 57.9049 10.767 57.9459 14.9257 57.1142C22.0172 55.6962 27.7597 54.5927 34.9448 56.7133C41.2384 58.5709 45.8813 61.5838 49.4928 64.8706C51.739 66.9149 52.0174 67.7078 53.4698 69.4443C54.001 70.0795 54.26 70.3775 54.7013 71.0183C56.3936 73.4748 60.7203 70.3104 62.9433 69.6134L62.7448 69.8585C62.7171 69.8912 62.6783 69.9392 62.6478 69.9744L62.2739 70.3772C61.9866 70.6656 61.894 70.7216 61.5949 70.9976C61.0971 71.4568 60.7762 71.8229 60.2919 72.2952C57.2372 75.2744 56.7813 76.8131 54.3866 75.5899C52.7547 74.7564 46.2746 69.7742 44.1796 68.1231C43.1858 67.34 42.0875 66.4687 40.4943 67.3865C38.7711 68.3794 34.7621 80.8445 33.9039 83.3376C33.2754 85.163 31.1365 89.3679 32.4928 90.9876C33.3409 92.0003 37.9024 93.0863 39.6836 93.8625C41.1653 94.5083 43.3591 96.2282 44.0745 97.2753C46.5245 100.862 46.7739 102.126 46.7741 106.928C46.7743 109.739 47.6707 114.404 44.1284 114.149C40.8097 113.91 42.3152 109.514 41.5648 106.686C40.3027 101.931 35.5129 98.0759 29.1492 99.5843C27.2902 100.025 24.4763 101.387 23.3102 102.707C17.5779 109.197 20.6759 111.654 18.3216 119.135C17.5426 121.611 16.2048 124.113 14.9514 125.814C13.7229 127.481 11.6041 129.694 10.3425 131.243L9.13306 132.64C6.67922 135.698 4.96919 133.124 5.01633 131.882C5.04734 131.066 7.57089 126.331 8.14409 124.933C9.17602 122.417 9.96318 120.232 10.8081 117.542C14.118 107.002 13.0464 93.9716 17.7557 84.1097L25.9823 67.1845C26.5051 66.1006 27.4374 64.8181 26.7382 63.4345C26.0819 62.1359 24.8305 62.0458 23.0704 62.0524C21.3952 62.0585 19.7191 62.0531 18.0439 62.0531C7.53096 62.0531 7.736 61.1681 6.73631 65.8619L5.75758 69.8804L5.75749 69.8806ZM97.0262 36.5383C98.0038 34.581 110.797 9.55619 111.027 8.16852C111.828 8.64849 114.288 14.1081 114.872 15.3064C117.33 20.3532 123.735 32.4661 125.433 36.546C123.293 35.4437 120.669 33.6601 119.107 35.7994C118.256 36.9641 118.665 42.9097 118.665 44.7525V82.3559C118.665 90.1666 119.066 96.6113 116.894 103.971C115.661 108.15 113.647 112.421 111.215 115.778C110.341 116.985 109.588 117.88 108.692 119.015C106.796 121.415 103.543 124.358 101.1 126.126C94.5128 130.892 85.6761 134.013 77.055 134.015L39.3986 134.011L39.3843 119.159C42.5622 119.189 61.5013 119.268 62.3958 119.07C63.993 118.718 64.2219 117.503 64.2219 115.864L64.2151 104.272L85.4359 104.282C89.6415 104.3 89.0401 102.211 89.0401 98.5514C89.0401 95.5116 89.0483 92.4702 89.0431 89.4308C95.7576 88.644 103.868 91.2288 103.932 86.8236C104.054 78.3174 103.874 68.6592 103.853 60.0172L103.831 42.1464C103.83 39.5127 104.342 36.0685 102.537 35.0748C100.578 33.9967 98.6198 36.013 97.0262 36.5384L97.0262 36.5383ZM123.727 41.314C124.103 41.6214 129.826 44.4496 130.446 44.6105C131.985 45.0091 133.184 43.9913 133.498 42.9105C133.871 41.6259 132.954 40.2908 132.44 39.2643L119.041 12.4554C117.922 10.2307 116.877 7.93123 115.691 5.75052C114.156 2.92757 113.446 0.0829902 111.307 0.00256742C109.587 -0.0622071 109.127 1.1962 108.54 2.34962L90.1065 39.2023C89.6019 40.2204 88.5814 41.653 88.9928 43.0271C89.325 44.1365 90.7583 45.0442 92.1323 44.5906L98.8173 41.3147L98.9373 84.4007C95.8015 84.3855 92.6593 84.4329 89.5272 84.4043C85.8715 84.3709 84.042 83.8731 84.042 87.9406L84.0459 99.294L66.2579 99.2853C61.0649 99.2853 59.2297 98.5776 59.2297 102.833L59.2291 114.167L51.4541 114.145C52.0262 111.467 51.8989 107.219 51.804 104.317C51.6289 98.9639 48.7547 93.9098 44.621 90.9547C41.3838 88.6404 39.0463 88.541 37.7157 87.7543C37.9529 86.327 42.4134 74.2152 42.9885 73.5247L44.5143 74.6893C48.1136 77.0378 52.3497 82.097 57.5382 80.9069C59.3223 80.4975 60.052 79.6393 60.9586 78.7346L69.2339 70.4381C71.0945 68.5027 72.9319 66.7636 74.8212 64.8571C75.5451 64.1265 77.072 63.1113 76.5048 61.3057C76.0733 59.9319 74.5876 59.197 72.9775 59.841L57.5757 66.4265C55.9759 64.8256 54.8468 63.1226 53.3007 61.6191C48.5143 56.9645 42.4408 53.4704 35.7876 51.7514C30.6196 50.4162 24.788 50.1044 19.391 51.1195C10.7456 52.7456 4.89503 52.7017 1.29658 60.4028C0.203004 62.7432 0.298791 65.6203 0.638596 68.3682C1.29269 73.6575 1.4285 79.6678 1.9816 85.1452C2.13742 86.6888 1.97781 87.9477 3.04587 88.7922C3.94627 89.504 5.33356 89.5309 6.22144 88.7801C8.06433 87.2221 10.3609 69.5441 11.7143 67.0457L20.4479 67.0619L13.3168 81.7334C6.9368 94.8408 10.2883 110.417 2.41046 125.372C1.24584 127.583 -0.559969 130.539 0.167724 133.529C0.831402 136.256 2.97228 138.475 5.79675 138.924C10.825 139.723 12.3303 136.435 14.5208 134.12C14.8695 133.751 14.9013 133.629 15.1969 133.298L18.3029 129.711C27.6452 117.294 22.0004 110.339 27.184 106.021C29.2647 104.288 32.7664 103.535 35.1725 105.435C37.503 107.275 36.5304 110.897 37.2769 114.189C33.8569 114.151 34.4183 117.115 34.4183 119.959C34.4183 122.422 34.2548 135.804 34.4744 137.037C34.9452 139.68 38.4419 139.022 41.1268 139.022C52.4753 139.022 63.8439 139.012 75.1932 139.02C84.9233 139.032 92.3637 137.201 100.292 132.598C102.723 131.186 105.06 129.559 107.129 127.705C108.832 126.177 110.782 124.384 112.257 122.578C117.493 116.171 120.636 110.448 122.548 102.141C123.33 98.7467 123.686 95.0368 123.686 91.4775L123.727 41.314H123.727Z" fill="black"/>
        <path fill-rule="evenodd" clip-rule="evenodd" d="M40.4468 24.9888C46.2558 24.0609 50.7729 28.2415 51.6271 33.0904C52.6574 38.9404 48.3379 43.7913 43.5192 44.5375C37.6451 45.4471 32.7892 41.2631 32.0746 36.3047C31.1946 30.1975 35.3278 25.8064 40.4468 24.9887V24.9888ZM41.0949 19.8623C33.024 20.1866 26.5459 27.1449 26.993 35.6384C27.4179 43.7091 34.3087 50.066 42.8101 49.6446C50.8084 49.248 57.1074 42.3956 56.7479 33.769C56.651 31.4446 55.9964 29.8312 55.1521 27.9477C54.5778 26.6667 52.8718 24.4503 51.9562 23.6878C51.3239 23.1611 50.5394 22.6208 49.7798 22.1301C47.2141 20.4722 44.2082 19.7373 41.0949 19.8623V19.8623Z" fill="black"/>
    </g>
    <defs>
        <clipPath id="clip0_24_127">
            <rect width="133.585" height="139.095" fill="white"/>
        </clipPath>
    </defs>
</svg>
