<svg fill="#858b8f" xmlns="http://www.w3.org/2000/svg" viewBox="0 0 27.85 27.2">
    <path d="M27.85,9h0a.51.51,0,0,0-.06-.22s0,0,0,0L22.61.23s0,0,0,0a.57.57,0,0,0-.11-.11l-.06,0,0,0a.45.45,0,0,0-.16,0H5.63a.9.9,0,0,0-.16,0l0,0-.06,0L5.27.2s0,0,0,0L.07,8.69s0,0,0,0A.51.51,0,0,0,0,8.94H0S0,9,0,9a.48.48,0,0,0,.07.2l0,0L13.55,27l0,0,.05.06h0l0,0,.08,0,0,0,.13,0,.12,0,0,0,.08,0,0,0h0l0-.06,0,0L27.76,9.22a0,0,0,0,1,0,0,.48.48,0,0,0,.07-.2S27.85,9,27.85,9ZM5.56,1.51l2.86,7H1.31Zm12.55,7.9L13.93,24.92,9.74,9.41ZM9.94,8.47l4-7,4,7ZM14.73.94H21.5L18.65,7.86ZM9.2,7.86,6.35.94h6.77ZM8.77,9.41l4.07,15.1L1.42,9.41Zm10.31,0h7.35L15,24.51Zm.35-.94,2.86-7,4.25,7Z"/>
</svg>