<svg fill="#858b8f" xmlns="http://www.w3.org/2000/svg" viewBox="0 0 410.39 410.29">
    <path d="M60,410.29c-7-2.07-14.32-3.35-20.87-6.36C13.26,392-2.27,364.52,1.12,337.7c3.78-29.89,24.19-52.42,53-58.24a62,62,0,0,1,34.23,2.48c2.73,1,4.4.82,6.55-1.35,20.93-21.12,42-42.07,62.94-63.2,1.26-1.27,1.87-3.6,2-5.49.3-4.09.09-8.22.09-12.94-4,0-7.88.43-11.62-.14-2.83-.43-6.16-1.43-8.1-3.35Q72,127.64,4.13,59.43A12.32,12.32,0,0,1,.94,51.71C.63,37.45.76,23.18.81,8.92.82,3.09,3.24.75,9.16.71c7.2,0,14.4.15,21.6-.07a12.49,12.49,0,0,1,9.9,4.1q47.84,48,95.84,95.92,28.28,28.28,56.51,56.62a7.81,7.81,0,0,0,7.38,2.45,42.57,42.57,0,0,1,10.72.05,7.45,7.45,0,0,0,7-2.47q75.85-76,151.78-152c3.26-3.27,6.6-4.93,11.27-4.71,6.65.31,13.33.24,20,0,4.15-.13,7.28,1.09,9.23,4.85v50.4c-1.23,1.36-2.4,2.77-3.69,4.07Q339.15,127.52,271.62,195.1A12,12,0,0,1,262,199c-3.52-.16-7.06,0-10.83,0,0,4.79-.22,8.92.1,13a9.26,9.26,0,0,0,2.1,5.48c21,21.2,42.17,42.25,63.22,63.41,1.72,1.73,3.08,2.23,5.5,1.38,32.78-11.49,67.39,2.87,82,34.38,3,6.53,4.25,13.9,6.31,20.88v13.6a14.94,14.94,0,0,0-.73,2.25c-3.79,23.76-16.59,40.91-38.34,51-6.29,2.91-13.4,4-20.14,6h-13.6a19.77,19.77,0,0,0-2.65-.76,65.78,65.78,0,0,1-52.73-87.21c.88-2.47.63-4-1.29-5.87-21.19-21-42.24-42.22-63.46-63.23-1.27-1.25-3.61-1.82-5.51-2a102.61,102.61,0,0,0-12.72,0c-1.79.1-4,.53-5.22,1.69-21.41,21.2-42.66,42.55-64,63.8-1.67,1.66-1.92,3-1.15,5.2,11.56,33.15-3.1,67.95-35.06,82.41-6.33,2.86-13.44,4-20.19,5.93ZM397.1,342.79c-.14-1.52-.21-4.48-.73-7.35C390.15,301,355,282.27,322.84,296.05c-5.87,2.51-7.32,2.27-11.69-2.1q-35.22-35.19-70.47-70.35c-3-3-4.3-6-3.18-10.32,2.57-10,.37-19.22-5.61-27.61-9.05-12.7-27.66-16.84-41.93-9.26-14,7.46-21,25.18-15.56,39.69,6.09,16.33,21,24.84,38.09,21.38,4.85-1,8.24.07,11.73,3.6C247.37,264.5,270.72,287.72,294,311c4.43,4.43,4.71,5.86,2.17,11.67a52.71,52.71,0,0,0,50,74.25C375,395.66,397.13,372.71,397.1,342.79ZM229,164.44c5,5,10.67,8.74,13.47,14,3.79,7.1,9,7.64,15.6,7.29,3-.16,5.16-.81,7.34-3Q329.9,118,394.51,53.38A8.84,8.84,0,0,0,397,48c.24-10.26.13-20.53.1-30.79a27.35,27.35,0,0,0-.41-3.23c-4.29,0-8.29.2-12.26-.06-3.22-.21-5.42,1-7.66,3.21Q304.49,89.57,232,161.9A38,38,0,0,1,229,164.44ZM28.93,35.08,41.19,23.71c-2.49-2.39-4.64-4.54-6.89-6.58-1.25-1.14-2.61-2.9-4-3C25,13.78,19.73,14,14.06,14c0,12.21-.05,23.91.09,35.61,0,1.11,1.06,2.39,1.95,3.27q65.28,65.38,130.64,130.68c.74.74,1.62,1.84,2.47,1.87,4.66.19,9.44.71,13.93-.18,1.86-.37,3.07-4,4.59-6.09a11.91,11.91,0,0,1,1.24-1.56c4.3-4.25,8.61-8.47,12.6-12.4l-12.74-13-10.56,11.42-10.57-9.65,11.72-10.32L148.14,132l-10.31,11.27-10.12-9.05,11.92-10.28L129.1,112.27,118.4,123.9l-10.47-9.73,12.49-10.77-11.09-11L98.86,104.53,88.33,94.45l11.49-10.5L89,72.31,78.2,84.24l-9.77-9.44,12-10.44L69.13,52.79,58.47,64.52l-9.54-9.2L60.7,44.53,49.75,33,38.58,44.75ZM164.84,229.23c-.63.6-1.69,1.58-2.7,2.59l-61.92,61.93c-4.62,4.62-5.93,4.89-12,2.25a53.79,53.79,0,0,0-26.9-4.28c-29.3,2.72-50.83,30.13-46.84,59.76,3.93,29.19,32.2,50,60.94,44.88,34.4-6.14,53.42-41.33,39.68-73.4-2.68-6.26-2.46-7.42,2.42-12.3l61.92-61.93c1-1,1.89-2,2.32-2.52Z"/>
    <path d="M344.48,304.66A39.93,39.93,0,0,1,384,344.49c-.12,21.59-18.34,39.53-40,39.37s-39.36-18.31-39.22-40.1C304.89,322.32,322.91,304.59,344.48,304.66Zm-.08,65.88a26.37,26.37,0,0,0,0-52.74c-14.34-.14-26.52,12-26.53,26.41A26.46,26.46,0,0,0,344.41,370.54Z"/>
    <path d="M225.42,205.35a19.83,19.83,0,1,1-20.08-19.68C216,185.44,225.29,194.55,225.42,205.35ZM205.77,199a6.46,6.46,0,1,0,6.28,6.73A6.36,6.36,0,0,0,205.77,199Z"/>
    <path d="M67.07,304.66c21.64.06,39.48,18.15,39.35,39.91-.13,21.46-18.12,39.31-39.6,39.3s-39.66-18.14-39.6-39.76S45.33,304.6,67.07,304.66ZM40.54,344.31a26.37,26.37,0,0,0,52.74,0c.14-14.34-12-26.52-26.41-26.53A26.46,26.46,0,0,0,40.54,344.31Z"/>
</svg>