<svg fill="#858b8f" xmlns="http://www.w3.org/2000/svg" viewBox="0 0 111.39 148.2">
    <path
            d="M19.88.05A16.07,16.07,0,0,0,8.31,5.63C-1.34,16.46,0,39.52.11,40.63,1.94,56,3.43,61.49,5.32,68.4,5.85,70.32,6.4,72.34,7,74.72a2.51,2.51,0,0,0,2.43,1.89,2.89,2.89,0,0,0,.5,0l25.25-5.12a2.49,2.49,0,0,0,2-2.65c-.63-8.17,1.58-12.78,3.71-17.26,1.89-4,3.85-8.06,3.46-14.3C43.47,23,42.05-1.19,19.88.05ZM36.36,49.39c-2.12,4.44-4.5,9.42-4.29,17.59L11.25,71.2c-.39-1.47-.75-2.82-1.1-4.11-1.84-6.72-3.29-12-5.07-26.91C5.07,40,3.77,18.24,12,9A11.18,11.18,0,0,1,20.13,5l1.12,0c14.87,0,17,15.39,18.12,32.83C39.65,42.49,38.13,45.69,36.36,49.39Z"/>
    <path
            d="M36.67,79.91l-24.76,5a2.51,2.51,0,0,0-1.95,3c3.51,16.62,7.71,26.23,18.79,26.23a21.6,21.6,0,0,0,3.39-.28c4.56-.72,7.51-2.3,9.29-5,3.43-5.21,1.54-13.7-1.84-27.12A2.48,2.48,0,0,0,36.67,79.91Zm.59,26.2c-.6.9-1.85,2.17-5.9,2.8a16.22,16.22,0,0,1-2.61.22c-6.52,0-10-5.06-13.36-19.8l19.93-4C37.93,95.8,39.34,103,37.26,106.11Z"/>
    <path
            d="M103.07,39.7A16.12,16.12,0,0,0,91.5,34.11C69.63,33,67.92,57.06,67,71.6c-.37,6,1.59,10.05,3.48,14,2.14,4.47,4.35,9.09,3.71,17.26a2.52,2.52,0,0,0,2,2.65l25.26,5.11a2.09,2.09,0,0,0,.49.05,2.5,2.5,0,0,0,2.43-1.89c.6-2.37,1.14-4.39,1.66-6.3,1.89-6.92,3.39-12.38,5.24-27.93C111.36,73.58,112.72,50.52,103.07,39.7Zm3.25,34.4c-1.8,15.05-3.25,20.36-5.09,27.07-.35,1.29-.72,2.63-1.1,4.09l-20.81-4.21c.2-8.17-2.18-13.15-4.3-17.59-1.76-3.7-3.29-6.9-3-11.86C73.11,54,75.21,38.2,91.25,39.1A11.13,11.13,0,0,1,99.33,43C107.6,52.28,106.32,74,106.32,74.1Z"/>
    <path
            d="M99.47,119l-24.76-5a2.48,2.48,0,0,0-2.93,1.85l-.36,1.47c-3,12.15-5,20.18-1.46,25.54,1.79,2.71,4.83,4.37,9.29,5.08a21.38,21.38,0,0,0,3.38.28c11.09,0,15.29-9.62,18.79-26.23a2.49,2.49,0,0,0-2-3ZM80,143c-3-.47-4.93-1.42-5.91-2.9-2.27-3.43-.47-11,1.94-20.72l19.93,4C92.24,140,88.29,144.3,80,143Z"/>
</svg>
